<?xml version="1.0" standalone="no"?>
<!DOCTYPE svg PUBLIC "-//W3C//DTD SVG 1.1//EN" "http://www.w3.org/Graphics/SVG/1.1/DTD/svg11.dtd" >
<svg xmlns="http://www.w3.org/2000/svg">
<metadata>Generated by IcoMoon</metadata>
<defs>
<font id="cds-icons" horiz-adv-x="1024">
<font-face units-per-em="1024" ascent="960" descent="-64" />
<missing-glyph horiz-adv-x="1024" />
<glyph unicode="&#x20;" horiz-adv-x="512" d="" />
<glyph unicode="&#xe900;" glyph-name="start" d="M533.333 917.333l72.004-274.163 244.779 142.947-142.946-244.778 274.163-72.006-274.163-72.004 142.946-244.779-244.779 142.946-72.004-274.163-72.004 274.163-244.78-142.946 142.947 244.779-274.163 72.004 274.163 72.006-142.947 244.778 244.78-142.947 72.004 274.163z" />
<glyph unicode="&#xe901;" glyph-name="adult" d="M682.667 597.333c0-94.255-76.412-170.667-170.667-170.667-94.257 0-170.667 76.412-170.667 170.667 0 94.257 76.41 170.667 170.667 170.667 94.255 0 170.667-76.41 170.667-170.667zM638.626 425.626c52.595 38.852 86.707 101.299 86.707 171.708 0 117.821-95.514 213.333-213.333 213.333s-213.333-95.513-213.333-213.333c0-70.409 34.111-132.855 86.708-171.708-43.586-4.553-84.535-23.923-115.806-55.194-36.007-36.006-56.236-84.843-56.236-135.765l0.010-149.333h42.666l-0.009 149.333c0 39.607 15.733 77.589 43.739 105.596s65.989 43.738 105.594 43.738h213.333c39.607 0 77.589-15.731 105.596-43.738 28.002-28.006 43.738-65.988 43.738-105.596l0.009-149.333h42.667l-0.009 149.333c0 50.923-20.228 99.759-56.235 135.765-31.27 31.27-72.222 50.641-115.806 55.194zM384 192v-106.667h-42.667v106.667h42.667zM682.667 85.333v106.667h-42.667v-106.667h42.667z" />
<glyph unicode="&#xe902;" glyph-name="baby" d="M445.047 560.081c-48.454 12.243-86.265 50.137-98.39 98.639l-0.794 3.173c-27.020 108.079 54.724 212.775 166.128 212.775 111.407 0 193.152-104.695 166.131-212.775l-0.794-3.173c-12.126-48.501-49.937-86.395-98.389-98.639l15.125-90.747h173.935c35.345 0 64-28.655 64-64s-28.655-64-64-64h-106.667l10.086-13.444c20.885-27.849 33.613-60.954 36.766-95.62 10.295-113.271-78.891-210.935-192.627-210.935h-27.989c-104.327 0-188.902 84.578-188.902 188.907 0 48.619 19.314 95.245 53.693 129.626l1.47 1.468h-97.829c-35.346 0-64 28.655-64 64s28.654 64 64 64h173.922l15.125 90.747zM511.991 832c-83.644 0-145.022-78.61-124.735-159.76l0.793-3.173c8.332-33.325 34.352-59.346 67.677-67.677l1.357-0.339c20.625-5.156 33.83-25.295 30.336-46.266l-14.242-85.451h77.632l-14.242 85.451c-3.494 20.972 9.711 41.11 30.336 46.266l1.357 0.339c33.323 8.332 59.345 34.352 67.678 67.677l0.794 3.173c20.288 81.15-41.092 159.76-124.74 159.76zM608 341.333h-193.831l-31.639-31.642c-26.377-26.377-41.196-62.153-41.196-99.452 0-80.768 65.472-146.24 146.236-146.24h27.989c88.649 0 158.161 76.122 150.135 164.403-2.436 26.786-12.271 52.369-28.407 73.886l-29.286 39.044zM256 426.667c-11.782 0-21.333-9.553-21.333-21.333s9.551-21.333 21.333-21.333h512c11.78 0 21.333 9.553 21.333 21.333s-9.553 21.333-21.333 21.333h-512z" />
<glyph unicode="&#xe903;" glyph-name="back" d="M396.497 746.667l30.17-28.719-280.994-269.947 280.994-269.948-30.17-28.719-311.163 298.667 311.163 298.667zM128 469.333h810.667v-42.667h-810.667v42.667z" />
<glyph unicode="&#xe904;" glyph-name="trash" d="M324.922 106.658c-19.637 0-36.034 6.579-49.189 19.733s-19.733 29.551-19.733 49.19v528.409h-42.667v42.667h597.333v-42.667h-42.667v-528.409c0-19.639-6.579-36.036-19.733-49.19s-29.551-19.733-49.19-19.733h-374.154zM725.333 703.991h-426.667v-528.409c0-6.566 2.735-12.582 8.205-18.052s11.488-8.205 18.051-8.205h374.154c6.566 0 12.582 2.735 18.052 8.205s8.205 11.486 8.205 18.052v528.409zM384 832h42.667v-85.333h-42.667v85.333zM426.667 789.333v42.667h170.667v-42.667h-170.667zM597.333 832h42.667v-85.333h-42.667v85.333z" />
<glyph unicode="&#xe905;" glyph-name="schedule" d="M341.333 746.667v-64h-42.667v64h-85.333c-35.346 0-64-28.654-64-64v-106.667h725.333v106.667c0 35.346-28.655 64-64 64h-85.333v-64h-42.667v64h-341.333zM341.333 789.333h341.333v85.333h42.667v-85.333h85.333c58.91 0 106.667-47.756 106.667-106.667v-554.667c0-58.91-47.757-106.667-106.667-106.667h-597.333c-58.91 0-106.667 47.757-106.667 106.667v554.667c0 58.91 47.756 106.667 106.667 106.667h85.333v85.333h42.667v-85.333zM874.667 533.333h-725.333v-405.333c0-35.345 28.654-64 64-64h597.333c35.345 0 64 28.655 64 64v405.333zM298.667 341.333h149.333v-149.333h-149.333v149.333zM341.333 298.667v-64h64v64h-64z" />
<glyph unicode="&#xe906;" glyph-name="chevron-left" d="M652.497 746.667l30.17-28.719-280.994-269.947 280.994-269.948-30.17-28.719-311.164 298.667 311.164 298.667z" />
<glyph unicode="&#xe907;" glyph-name="chevron-right" d="M371.503 149.333l-30.17 28.719 280.994 269.948-280.994 269.947 30.17 28.719 311.163-298.667-311.163-298.667z" />
<glyph unicode="&#xe908;" glyph-name="child" d="M853.333 448c0-188.514-152.819-341.333-341.333-341.333s-341.333 152.819-341.333 341.333c0 188.513 152.82 341.333 341.333 341.333s341.333-152.82 341.333-341.333zM512 149.333c164.949 0 298.667 133.717 298.667 298.667s-133.717 298.667-298.667 298.667c-8.341 0-16.602-0.342-24.772-1.012l-7.189-43.151c-7.701-46.193 46.515-76.779 82.069-46.303l27.767-32.395c-65.818-56.415-166.176 0.204-151.923 85.712l4.847 29.091c-131.581-31.215-229.466-149.481-229.466-290.609 0-164.949 133.718-298.667 298.667-298.667zM384 448c23.564 0 42.667 19.102 42.667 42.667s-19.103 42.667-42.667 42.667c-23.564 0-42.667-19.102-42.667-42.667s19.103-42.667 42.667-42.667zM682.667 490.667c0-23.565-19.102-42.667-42.667-42.667s-42.667 19.102-42.667 42.667c0 23.565 19.102 42.667 42.667 42.667s42.667-19.102 42.667-42.667zM323.042 351.693c16.941-28.233 77.094-95.689 188.958-95.689 55.603 0 100.412 16.755 132.489 37.094 16 10.138 28.983 21.265 38.656 31.838 9.233 10.095 16.836 21.205 19.955 31.603l-40.866 12.262c-0.435-1.455-3.14-6.942-10.573-15.066-6.993-7.65-17.037-16.375-30.016-24.606-25.877-16.401-62.844-30.46-109.645-30.46-92.933 0-140.869 55.804-152.372 74.974l-36.586-21.952z" />
<glyph unicode="&#xe909;" glyph-name="excelent" d="M511.975 89.6c-197.939 0-358.4 160.461-358.4 358.399s160.461 358.4 358.4 358.4c197.939 0 358.399-160.461 358.399-358.4s-160.461-358.399-358.399-358.399zM511.975 38.4c226.214 0 409.599 183.386 409.599 409.599 0 226.216-183.386 409.6-409.599 409.6-226.216 0-409.6-183.384-409.6-409.6 0-226.214 183.384-409.599 409.6-409.599zM332.825 422.401c0-98.97 80.23-179.201 179.2-179.201s179.201 80.231 179.201 179.201h51.2c0-127.245-103.154-230.401-230.401-230.401s-230.4 103.155-230.4 230.401h51.2zM435.213 550.399c0-28.276-22.924-51.2-51.2-51.2s-51.2 22.924-51.2 51.2c0 28.277 22.923 51.2 51.2 51.2s51.2-22.923 51.2-51.2zM691.213 550.399c0-28.276-22.925-51.2-51.2-51.2-28.277 0-51.2 22.924-51.2 51.2s22.923 51.2 51.2 51.2c28.275 0 51.2-22.923 51.2-51.2zM320 384h384v38.4h-384v-38.4z" />
<glyph unicode="&#xe90a;" glyph-name="good" d="M511.975 89.6c-197.939 0-358.4 160.461-358.4 358.399s160.461 358.4 358.4 358.4c197.939 0 358.399-160.461 358.399-358.4s-160.461-358.399-358.399-358.399zM511.975 38.4c226.214 0 409.599 183.386 409.599 409.599 0 226.216-183.386 409.6-409.599 409.6-226.216 0-409.6-183.384-409.6-409.6 0-226.214 183.384-409.599 409.6-409.599zM371.2 383.993c0-34.969 41.83-95.999 140.8-95.999s140.813 61.030 140.813 95.999h51.2c0-63.246-64.766-147.199-192.013-147.199s-192 83.953-192 147.199h51.2zM435.213 550.399c0-28.276-22.924-51.2-51.2-51.2s-51.2 22.924-51.2 51.2c0 28.277 22.923 51.2 51.2 51.2s51.2-22.923 51.2-51.2zM691.213 550.399c0-28.276-22.925-51.2-51.2-51.2-28.277 0-51.2 22.924-51.2 51.2s22.923 51.2 51.2 51.2c28.275 0 51.2-22.923 51.2-51.2z" />
<glyph unicode="&#xe90b;" glyph-name="close" d="M798.566 131.226l30.17 30.17-286.613 286.609 286.613 286.615-30.17 30.17-286.613-286.616-286.616 286.618-30.17-30.17 286.617-286.618-286.614-286.613 30.17-30.17 286.613 286.613 286.613-286.609z" />
<glyph unicode="&#xe90c;" glyph-name="simple-discount" d="M878.95 448.004c0 202.652-164.284 366.933-366.933 366.933-202.652 0-366.934-164.282-366.934-366.933 0-202.654 164.282-366.933 366.934-366.933 202.65 0 366.933 164.279 366.933 366.933zM921.617 448.004c0-226.214-183.386-409.6-409.6-409.6-226.216 0-409.6 183.386-409.6 409.6 0 226.216 183.384 409.6 409.6 409.6 226.214 0 409.6-183.384 409.6-409.6zM382.026 270.327l290.584 295.066-30.635 31.108-290.585-295.065 30.635-31.108zM403.687 587.383c-23.927 0-43.325-19.696-43.325-43.993 0-24.299 19.398-43.994 43.325-43.994s43.323 19.695 43.323 43.994c0 24.297-19.396 43.993-43.323 43.993zM620.314 367.415c-23.927 0-43.328-19.695-43.328-43.994 0-24.294 19.401-43.994 43.328-43.994s43.324 19.699 43.324 43.994c0 24.299-19.396 43.994-43.324 43.994z" />
<glyph unicode="&#xe90d;" glyph-name="down" d="M213.333 588.497l28.719 30.17 269.947-280.994 269.948 280.994 28.719-30.17-298.667-311.163-298.667 311.163z" />
<glyph unicode="&#xe90e;" glyph-name="edit" d="M226.501 149.325h45.784l422.153 422.155-45.786 45.784-422.152-422.154v-45.786zM785.762 602.167l-106.667 106.175 51.529 51.529c8.695 8.698 19.076 13.046 31.138 13.046s22.443-4.349 31.138-13.046l44.143-44.144c8.7-8.698 13.129-18.995 13.295-30.892 0.162-11.898-4.105-22.195-12.8-30.893l-51.776-51.775zM755.076 571.233l-464.575-464.575h-106.668v106.667l464.576 464.576 106.667-106.668zM671.138 594.782v0z" />
<glyph unicode="&#xe90f;" glyph-name="so-good" d="M511.975 89.6c-197.939 0-358.4 160.461-358.4 358.399s160.461 358.4 358.4 358.4c197.939 0 358.399-160.461 358.399-358.4s-160.461-358.399-358.399-358.399zM511.975 38.4c226.214 0 409.599 183.386 409.599 409.599 0 226.216-183.386 409.6-409.599 409.6-226.216 0-409.6-183.384-409.6-409.6 0-226.214 183.384-409.599 409.6-409.599zM332.825 422.401c0-98.97 80.23-179.201 179.2-179.201s179.201 80.231 179.201 179.201h51.2c0-127.245-103.154-230.401-230.401-230.401s-230.4 103.155-230.4 230.401h51.2zM435.213 550.399c0-28.276-22.924-51.2-51.2-51.2s-51.2 22.924-51.2 51.2c0 28.277 22.923 51.2 51.2 51.2s51.2-22.923 51.2-51.2zM691.213 550.399c0-28.276-22.925-51.2-51.2-51.2-28.277 0-51.2 22.924-51.2 51.2s22.923 51.2 51.2 51.2c28.275 0 51.2-22.923 51.2-51.2z" />
<glyph unicode="&#xe910;" glyph-name="nice" d="M511.975 89.594c-197.939 0-358.4 160.461-358.4 358.4s160.461 358.4 358.4 358.4c197.939 0 358.399-160.461 358.399-358.4s-160.461-358.4-358.399-358.4zM511.975 38.394c226.214 0 409.599 183.386 409.599 409.6 0 226.216-183.386 409.6-409.599 409.6-226.216 0-409.6-183.384-409.6-409.6 0-226.214 183.384-409.6 409.6-409.6zM288 288h448v64h-448v-64zM435.213 550.394c0-28.277-22.924-51.2-51.2-51.2s-51.2 22.923-51.2 51.2c0 28.277 22.923 51.2 51.2 51.2s51.2-22.923 51.2-51.2zM691.213 550.394c0-28.277-22.925-51.2-51.2-51.2-28.277 0-51.2 22.923-51.2 51.2s22.923 51.2 51.2 51.2c28.275 0 51.2-22.923 51.2-51.2z" />
<glyph unicode="&#xe911;" glyph-name="candado" d="M682.667 490.667v204.8c0 89.6-64 170.667-153.6 179.2-102.4 8.533-187.733-72.533-187.733-170.667v-213.333c0 0 0 0 0 0h-128c0 0 0 0 0 0v-469.333c0 0 0 0 0 0h597.333c0 0 0 0 0 0v469.333c0 0 0 0 0 0h-128c0 0 0 0 0 0zM384 704c0 72.533 55.467 128 128 128s128-55.467 128-128v-213.333h-256v213.333zM768 64h-512v384h512v-384zM512 200.533c25.6 0 51.2 21.333 51.2 51.2 0 25.6-21.333 51.2-51.2 51.2-25.6 0-51.2-21.333-51.2-51.2 0-25.6 25.6-51.2 51.2-51.2z" />
<glyph unicode="&#xe912;" glyph-name="family" d="M469.333 640c0 82.475 66.859 149.333 149.333 149.333s149.333-66.859 149.333-149.333c0-82.475-66.859-149.333-149.333-149.333s-149.333 66.859-149.333 149.333zM739.358 490.667c43.499 35.2 71.309 89.018 71.309 149.333 0 106.039-85.961 192-192 192s-192-85.961-192-192c0-106.039 85.961-192 192-192h128c82.475 0 149.333-66.859 149.333-149.333v-234.667h42.667v234.667c0 106.039-85.961 192-192 192h-7.309zM213.333 384c0 58.91 47.756 106.667 106.667 106.667s106.667-47.757 106.667-106.667c0-58.91-47.756-106.667-106.667-106.667s-106.667 47.757-106.667 106.667zM423.397 276.254c28.311 27.174 45.937 65.404 45.937 107.746 0 82.475-66.859 149.333-149.333 149.333s-149.333-66.859-149.333-149.333c0-42.342 17.624-80.572 45.937-107.746-73.956-8.917-131.27-71.893-131.27-148.254v-64h42.667v64c0 58.91 47.756 106.667 106.667 106.667h170.667c58.91 0 106.667-47.757 106.667-106.667v-64h42.667v64c0 76.361-57.314 139.337-131.27 148.254z" />
<glyph unicode="&#xe913;" glyph-name="drag" d="M446.11 695.095l-104.8 104.801-104.801-104.801 24.625-24.625 62.863 62.863v-182.683h-182.683l62.863 62.863-24.625 24.625-104.801-104.801 104.801-104.801 24.625 24.623-62.863 62.865h182.683v-182.682l-62.863 62.861-24.625-24.623 104.801-104.802 104.8 104.802-24.625 24.623-62.863-62.861v182.682h182.681l-62.861-62.865 24.623-24.623 104.802 104.801-104.802 104.801-24.623-24.625 62.861-62.863h-182.681v182.683l62.863-62.863 24.625 24.625zM720.277 665.604c-13.248 0-24.606-4.602-33.818-13.778s-13.841-20.501-13.841-33.71v-345.984l-134.852 26.453-31.851-31.654 167.415-164.527h269.602l43.153 242.607-177.745 86.481h-40.205v186.624c0 13.219-4.672 24.548-13.956 33.722-9.271 9.164-20.659 13.766-33.903 13.766zM710.246 628.147c2.394 2.379 5.628 3.712 10.133 3.712 4.501 0 7.735-1.333 10.129-3.712 2.389-2.377 3.725-5.574 3.725-10.030v-220.369h66.688l146.65-72.87-33.254-188.727h-226.624l-126.259 123.823 145.088-28.838v386.983c0 4.456 1.335 7.654 3.725 10.030z" />
<glyph unicode="&#xe914;" glyph-name="junior" d="M853.333 448c0 37.252-5.969 73.109-16.998 106.667h144.998v42.667h-162.313c-55.394 113.674-172.062 192-307.021 192-188.513 0-341.333-152.82-341.333-341.333s152.82-341.333 341.333-341.333c188.514 0 341.333 152.819 341.333 341.333zM512 746.667c110.549 0 207.070-60.062 258.709-149.333h-517.42c51.641 89.271 148.161 149.333 258.71 149.333zM232.944 554.667h558.113c12.668-33.126 19.61-69.086 19.61-106.667 0-164.949-133.717-298.667-298.667-298.667s-298.667 133.717-298.667 298.667c0 37.581 6.941 73.54 19.611 106.667zM384 426.667c23.564 0 42.667 19.102 42.667 42.667s-19.103 42.667-42.667 42.667c-23.564 0-42.667-19.102-42.667-42.667s19.103-42.667 42.667-42.667zM682.667 469.333c0-23.565-19.102-42.667-42.667-42.667s-42.667 19.102-42.667 42.667c0 23.565 19.102 42.667 42.667 42.667s42.667-19.102 42.667-42.667zM323.042 327.915c16.941-28.237 77.094-95.689 188.958-95.689 55.603 0 100.412 16.755 132.489 37.090 16 10.142 28.983 21.269 38.656 31.842 9.233 10.095 16.836 21.205 19.955 31.603l-40.866 12.258c-0.435-1.455-3.14-6.938-10.573-15.066-6.993-7.646-17.037-16.371-30.016-24.602-25.877-16.405-62.844-30.46-109.645-30.46-92.933 0-140.869 55.804-152.372 74.974l-36.586-21.952z" />
<glyph unicode="&#xe915;" glyph-name="less" d="M938.581 469.333v-42.667h-853.331v42.667h853.331z" />
<glyph unicode="&#xe916;" glyph-name="localization" d="M594.97 450.364c22.583 22.583 34.364 51.034 34.364 82.97 0 31.934-11.78 60.388-34.364 82.97s-51.034 34.363-82.97 34.363c-31.936 0-60.386-11.782-82.97-34.363-22.582-22.582-34.364-51.036-34.364-82.97 0-31.936 11.782-60.386 34.364-82.97 22.583-22.583 51.034-34.364 82.97-34.364s60.386 11.78 82.97 34.364zM512 77.722c-98.76 86.716-172.081 166.396-221.195 238.989-53.677 79.334-77.472 148.382-77.472 208.090 0 96.623 30.616 169.545 89.193 223.569 61.035 56.291 130.276 83.631 209.474 83.631s148.437-27.34 209.472-83.631c58.577-54.025 89.195-126.946 89.195-223.569 0-59.708-23.795-128.755-77.47-208.090-49.118-72.593-122.436-152.273-221.197-238.989zM564.8 480.533c-14.579-14.579-32.179-21.867-52.8-21.867s-38.221 7.287-52.8 21.867c-14.579 14.579-21.867 32.179-21.867 52.8s7.287 38.222 21.867 52.8 32.179 21.867 52.8 21.867c20.621 0 38.221-7.289 52.8-21.867s21.867-32.178 21.867-52.8c0-20.621-7.287-38.221-21.867-52.8zM255.467 292.8c56.533-83.554 142.045-174.046 256.533-271.467 114.487 97.421 200 187.913 256.533 271.467s84.8 160.887 84.8 232c0 106.667-34.313 191.645-102.933 254.933s-148.087 94.933-238.4 94.933c-90.311 0-169.778-31.645-238.4-94.933s-102.933-148.267-102.933-254.933c0-71.113 28.267-148.446 84.8-232z" />
<glyph unicode="&#xe917;" glyph-name="search" d="M149.333 533.333c0 153.167 124.166 277.333 277.333 277.333 153.169 0 277.333-124.166 277.333-277.333 0-153.169-124.164-277.333-277.333-277.333-153.167 0-277.333 124.164-277.333 277.333zM426.667 853.333c-176.731 0-320-143.269-320-320s143.269-320 320-320c80.687 0 154.402 29.862 210.688 79.142l258.65-258.65 30.17 30.17-258.65 258.65c49.28 56.286 79.142 130.001 79.142 210.688 0 176.731-143.27 320-320 320z" />
<glyph unicode="&#xe918;" glyph-name="person" d="M346.074 661.333c0 91.638 74.288 165.926 165.926 165.926 91.639 0 165.926-74.288 165.926-165.926s-74.287-165.926-165.926-165.926c-91.638 0-165.926 74.288-165.926 165.926zM512 874.667c-117.821 0-213.333-95.513-213.333-213.333s95.513-213.333 213.333-213.333c117.82 0 213.333 95.513 213.333 213.333s-95.514 213.333-213.333 213.333zM278.406 276.258c28.005 28.006 65.989 43.742 105.594 43.742h256c39.607 0 77.589-15.735 105.596-43.742 28.006-28.002 43.738-65.988 43.738-105.591v-128h42.667v128c0 50.918-20.228 99.755-56.235 135.765-36.006 36.006-84.843 56.235-135.765 56.235h-256c-50.921 0-99.758-20.228-135.764-56.235-36.007-36.011-56.236-84.847-56.236-135.765v-128h42.667v128c0 39.603 15.733 77.589 43.739 105.591z" />
<glyph unicode="&#xe919;" glyph-name="people" d="M234.633 661.333c0 82.475 66.859 149.333 149.333 149.333s149.333-66.859 149.333-149.333c0-82.475-66.859-149.333-149.333-149.333s-149.333 66.859-149.333 149.333zM383.966 853.333c-106.039 0-192-85.961-192-192s85.961-192 192-192c106.039 0 192 85.961 192 192s-85.961 192-192 192zM193.072 254.929c28.005 28.006 65.989 43.738 105.594 43.738h170.667c39.607 0 77.589-15.731 105.596-43.738s43.738-65.988 43.738-105.596v-106.667h42.667v106.667c0 50.923-20.228 99.759-56.235 135.765s-84.843 56.235-135.765 56.235h-170.667c-50.921 0-99.758-20.228-135.764-56.235s-56.236-84.843-56.236-135.765v-106.667h42.667v106.667c0 39.607 15.733 77.589 43.739 105.596zM667.324 852.417l20.668-5.292c41.301-10.575 77.905-34.594 104.047-68.271s40.329-75.097 40.329-117.729c0-42.632-14.187-84.052-40.329-117.729-26.142-33.679-62.746-57.696-104.047-68.273l-20.668-5.291-10.581 41.335 20.668 5.291c32.119 8.226 60.591 26.906 80.926 53.1 20.331 26.193 31.364 58.409 31.364 91.567s-11.034 65.374-31.364 91.567c-20.335 26.193-48.806 44.875-80.926 53.1l-20.668 5.292 10.581 41.333zM773.333 334.251l-20.655 5.333-10.667-41.314 20.655-5.333c31.915-8.239 60.203-26.803 80.465-52.804 20.245-25.98 31.33-57.929 31.535-90.867v-106.603h42.667v106.786c-0.243 42.377-14.502 83.482-40.546 116.911-26.048 33.425-62.421 57.297-103.454 67.891z" />
<glyph unicode="&#xe91a;" glyph-name="plus" d="M490.581 21.333h42.667v405.329h405.333v42.667h-405.333v405.338h-42.667v-405.338h-405.331v-42.667h405.331v-405.329z" />
<glyph unicode="&#xe91b;" glyph-name="up" d="M810.667 307.503l-28.719-30.17-269.948 280.994-269.947-280.994-28.719 30.17 298.667 311.164 298.667-311.164z" />
<glyph unicode="&#xe91c;" glyph-name="confirmation" d="M512 21.333c-235.642 0-426.667 191.027-426.667 426.667 0 235.642 191.025 426.667 426.667 426.667 235.639 0 426.667-191.025 426.667-426.667 0-235.639-191.027-426.667-426.667-426.667zM460.621 277.333l264.713 294.617-46.067 46.717-221.619-246.656-115.946 112.917-43.034-49.873 161.954-157.722z" />
<glyph unicode="&#xe91d;" glyph-name="error" d="M512 21.333c235.639 0 426.667 191.027 426.667 426.667 0 235.642-191.027 426.667-426.667 426.667-235.642 0-426.667-191.025-426.667-426.667 0-235.639 191.025-426.667 426.667-426.667zM482.918 680.729h58.18v-349.090h-58.18v349.090zM482.918 273.459h58.18v-58.185h-58.18v58.185z" />
<glyph unicode="&#xe91e;" glyph-name="360" d="M301.943 838.22c60.427 54.138 130.467 81.238 210.023 81.238 79.561 0 149.598-27.1 210.022-81.238 60.557-54.253 90.778-127.093 90.778-218.282 0-61.032-24.969-127.189-74.581-198.417-49.617-71.241-124.599-148.297-224.858-231.172l-1.361-1.126-1.357 1.126c-100.262 82.876-175.242 159.932-224.86 231.172-49.612 71.228-74.583 137.385-74.583 198.417 0 91.189 30.221 164.029 90.776 218.282zM511.966 878.925c-68.762 0-128.842-23.037-181.865-70.542-50.745-45.464-77.334-106.839-77.334-188.445 0-50.165 20.584-108.433 67.405-175.659 42.606-61.171 106.162-128.375 191.794-201.553 85.632 73.178 149.188 140.382 191.795 201.553 46.822 67.226 67.405 125.494 67.405 175.659 0 81.606-26.59 142.981-77.333 188.445-53.022 47.505-113.101 70.542-181.867 70.542zM437.879 699.246c20.164 19.588 45.598 29.812 74.086 29.812s53.922-10.224 74.086-29.812c20.164-19.59 30.716-44.324 30.716-72.055s-10.551-52.465-30.716-72.055c-20.164-19.587-45.598-29.812-74.086-29.812s-53.922 10.225-74.086 29.812c-20.164 19.59-30.713 44.325-30.713 72.055s10.549 52.465 30.713 72.055zM511.966 688.525c-17.498 0-32.363-5.985-44.715-17.983-12.348-11.996-18.483-26.407-18.483-43.35s6.135-31.354 18.483-43.35c12.352-11.998 27.217-17.984 44.715-17.984s32.363 5.986 44.715 17.984c12.348 11.996 18.487 26.407 18.487 43.35s-6.14 31.354-18.487 43.35c-12.352 11.998-27.217 17.983-44.715 17.983zM272.98 339.332l33.535-30.217-10.785-3.319c-14.545-4.476-28.035-9.562-40.479-15.253-28.919-13.222-50.181-25.681-64.113-37.303-14.125-11.78-19.549-21.705-19.549-29.764 0-6.571 4.282-14.822 15.904-24.764 11.459-9.801 29.009-20.326 52.979-31.509 43.011-20.066 95.262-34.684 156.871-43.755l-82.14 75.575 29.897 27.507 136.21-125.321-136.21-125.321-29.897 27.507 87.013 80.060c-71.667 9.766-133.699 26.402-185.994 50.010-55.019 24.841-86.056 54.434-86.056 90.010 0 20.732 9.763 39.676 27.96 56.747 18.104 16.986 44.855 32.435 79.802 46.532 10.202 4.113 20.715 7.927 31.537 11.439l3.515 1.139zM742.694 328.358l3.977-1.604c34.948-14.097 61.696-29.547 79.804-46.532 18.197-17.071 27.959-36.015 27.959-56.747 0-27.213-19.814-52.083-55.049-74.965-35.635-23.142-83.132-40.922-142.191-53.559l-7.74-1.655v39.3l4.911 1.173c52.134 12.459 91.712 27.763 119.121 45.687 13.884 9.079 23.94 17.438 30.464 25.028 6.558 7.637 9.058 13.922 9.058 18.991 0 8.060-5.423 17.984-19.546 29.764-13.935 11.622-35.196 24.081-64.115 37.303-2.603 1.19-5.248 2.355-7.945 3.49l-8.644 3.652 29.935 30.673z" />
<glyph unicode="&#xe91f;" glyph-name="bus" d="M128 725.329c-5.658 0-11.084-2.248-15.085-6.249s-6.249-9.427-6.249-15.085v-149.333h170.667v170.667h-149.333zM512 767.996h170.257c0.286 0.006 0.576 0.006 0.862 0h42.214c64.998 0 125.175-36.165 168.209-96.411 42.97-60.156 66.458-140.628 66.458-223.589v-213.333c0-11.78-9.553-21.333-21.333-21.333h-66.133c-9.882-48.687-52.928-85.333-104.533-85.333s-94.652 36.646-104.533 85.333h-302.934c-9.883-48.687-52.928-85.333-104.533-85.333s-94.65 36.646-104.533 85.333h-66.134c-11.782 0-21.333 9.553-21.333 21.333v469.333c0 16.974 6.743 33.252 18.745 45.255s28.281 18.745 45.255 18.745h384zM490.667 725.329h-170.667v-170.667h170.667v170.667zM533.333 554.662h168.657l-36.57 170.667h-132.087v-170.667zM512 511.996h-405.333v-256h44.8c9.883 48.687 52.928 85.333 104.533 85.333s94.65-36.646 104.533-85.333h302.934c9.882 48.687 52.928 85.333 104.533 85.333s94.652-36.646 104.533-85.333h44.8v170.667h-170.667c-10.061 0-18.752 7.027-20.86 16.862l-14.673 68.471h-199.134zM763.913 469.329h152.849c-3.635 67.496-24.401 130.505-57.937 177.456-36.983 51.775-85.329 78.544-133.491 78.544h-16.277l54.857-256zM320 234.662c0 35.345-28.654 64-64 64s-64-28.655-64-64c0-35.345 28.654-64 64-64s64 28.655 64 64zM704 234.662c0-35.345 28.655-64 64-64s64 28.655 64 64c0 35.345-28.655 64-64 64s-64-28.655-64-64z" />
<glyph unicode="&#xe920;" glyph-name="candado-filled" d="M384 703.986c0 70.7 57.314 128.014 128.013 128.014s128.013-57.314 128.013-128.014v-213.32h-256.026v213.32zM341.333 490.667h-128v-469.333h597.333v469.333h-127.974v213.32c0 94.264-76.416 170.68-170.679 170.68s-170.679-76.416-170.679-170.68v-213.32zM561.724 252.429c0-27.49-22.289-49.775-49.779-49.775s-49.779 22.285-49.779 49.775c0 27.494 22.289 49.779 49.779 49.779s49.779-22.285 49.779-49.779z" />
<glyph unicode="&#xe921;" glyph-name="editar" d="M226.501 149.325h45.784l422.153 422.155-45.786 45.784-422.152-422.154v-45.786zM785.762 602.167l-106.667 106.175 51.529 51.529c8.695 8.698 19.076 13.046 31.138 13.046s22.443-4.349 31.138-13.046l44.143-44.144c8.7-8.698 13.129-18.995 13.295-30.892 0.162-11.898-4.105-22.195-12.8-30.893l-51.776-51.775zM755.076 571.233l-464.575-464.575h-106.668v106.667l464.576 464.576 106.667-106.668zM671.138 594.782v0z" />
<glyph unicode="&#xe922;" glyph-name="estrella" d="M512 960l82.291-313.329 279.748 163.368-163.366-279.747 313.327-82.291-313.327-82.291 163.366-279.748-279.748 163.366-82.291-313.327-82.291 313.327-279.747-163.366 163.368 279.748-313.329 82.291 313.329 82.291-163.368 279.747 279.747-163.368 82.291 313.329z" />
<glyph unicode="&#xe923;" glyph-name="family1" d="M618.667 789.333c-82.475 0-149.333-66.859-149.333-149.333s66.859-149.333 149.333-149.333c82.475 0 149.333 66.859 149.333 149.333s-66.859 149.333-149.333 149.333zM810.667 640c0-60.315-27.81-114.133-71.309-149.333h7.309c106.039 0 192-85.961 192-192v-234.667h-42.667v234.667c0 82.475-66.859 149.333-149.333 149.333h-128c-106.039 0-192 85.961-192 192s85.961 192 192 192c106.039 0 192-85.961 192-192zM320 490.667c-58.91 0-106.667-47.757-106.667-106.667s47.756-106.667 106.667-106.667c58.91 0 106.667 47.757 106.667 106.667s-47.756 106.667-106.667 106.667zM469.333 384c0-42.342-17.626-80.572-45.937-107.746 73.956-8.917 131.27-71.893 131.27-148.254v-64h-42.667v64c0 58.91-47.757 106.667-106.667 106.667h-170.667c-58.91 0-106.667-47.757-106.667-106.667v-64h-42.667v64c0 76.361 57.314 139.337 131.27 148.254-28.313 27.174-45.937 65.404-45.937 107.746 0 82.475 66.859 149.333 149.333 149.333s149.333-66.859 149.333-149.333z" />
<glyph unicode="&#xe924;" glyph-name="galeria" d="M244.333 774.792h651.637v-558.544h-116.335v-116.365h-651.635v558.545h116.333v116.364zM849.425 262.793v465.454h-558.546v-69.818h488.756v-395.636h69.79zM733.090 611.883h-558.545v-465.455h558.545v465.455zM530.726 500.881l-18.291 33.542-87.165-152.535-40.664 60.996-148.727-208.218h440.059l-145.212 266.214zM445.188 330.748l66.377 116.164 92.497-169.579h-285.274l64.607 90.449 44.667-67.004 17.126 29.969z" />
<glyph unicode="&#xe925;" glyph-name="localizacion-exacta" d="M490.701 44.809v62.357c-88.89 8.316-162.284 41.425-220.185 99.324-57.901 57.903-91.009 131.298-99.324 220.186h-62.359v42.667h62.359c8.315 88.889 41.423 162.284 99.324 220.184s131.296 91.009 220.185 99.324v62.359h42.667v-62.359c88.887-8.315 162.283-41.423 220.186-99.324 57.899-57.901 91.008-131.296 99.324-220.184h62.357v-42.667h-62.357c-8.316-88.887-41.425-162.283-99.324-220.186-57.903-57.899-131.298-91.008-220.186-99.324v-62.357h-42.667zM512.034 149.342c82.487 0 152.887 29.154 211.2 87.467 58.308 58.313 87.467 128.713 87.467 211.2s-29.158 152.889-87.467 211.2c-58.313 58.311-128.713 87.467-211.2 87.467-82.492 0-152.89-29.156-211.201-87.467s-87.467-128.713-87.467-211.2c0-82.487 29.155-152.887 87.467-211.2s128.709-87.467 211.201-87.467zM512.034 320.009c-35.2 0-65.335 12.531-90.401 37.598s-37.6 55.202-37.6 90.402 12.533 65.331 37.6 90.4c25.065 25.067 55.201 37.6 90.401 37.6s65.331-12.533 90.398-37.6c25.067-25.069 37.602-55.2 37.602-90.4s-12.535-65.335-37.602-90.402c-25.067-25.067-55.198-37.598-90.398-37.598zM512.034 362.675c23.467 0 43.554 8.354 60.267 25.067 16.708 16.713 25.067 36.8 25.067 60.267s-8.358 43.554-25.067 60.267c-16.713 16.713-36.8 25.067-60.267 25.067s-43.558-8.354-60.267-25.067c-16.713-16.713-25.067-36.8-25.067-60.267s8.354-43.554 25.067-60.267c16.708-16.713 36.8-25.067 60.267-25.067z" />
<glyph unicode="&#xe926;" glyph-name="lupa" d="M149.333 533.333c0 153.167 124.166 277.333 277.333 277.333 153.169 0 277.333-124.166 277.333-277.333 0-153.169-124.164-277.333-277.333-277.333-153.167 0-277.333 124.164-277.333 277.333zM426.667 853.333c-176.731 0-320-143.269-320-320s143.269-320 320-320c80.687 0 154.402 29.862 210.688 79.142l258.65-258.65 30.17 30.17-258.65 258.65c49.28 56.286 79.142 130.001 79.142 210.688 0 176.731-143.27 320-320 320z" />
<glyph unicode="&#xe927;" glyph-name="mail" d="M839.518 704h-655.118l327.557-250.487 327.561 250.487zM170.667 660.79v-468.79h682.667v468.853l-341.376-261.049-341.291 260.986zM128 149.333v597.333h768v-597.333h-768z" />
<glyph unicode="&#xe928;" glyph-name="metro" d="M320 874.667c-129.603 0-234.667-105.064-234.667-234.667v-576h853.35v576c0 129.603-105.067 234.667-234.667 234.667h-384.017zM128 640c0 106.039 85.961 192 192 192h384.017c106.039 0 192-85.961 192-192v-533.333h-768.017v533.333zM256 630.519v-308.876c0-29.653 10.536-54.724 31.607-75.209 21.071-20.489 46.857-30.729 77.358-30.729l-51.2-49.779v-16.593h48.573l68.268 66.372h162.79l68.267-66.372h48.576v16.593l-51.2 49.779c30.498 0 56.286 10.24 77.355 30.729 21.073 20.484 31.607 45.555 31.607 75.209v308.876c0 25.484-6.673 45.873-20.019 61.169-13.35 15.295-31.629 26.974-54.844 35.035-23.215 8.063-50.368 13.402-81.463 16.019-31.091 2.617-64.316 3.925-99.674 3.925-33.041 0-64.986-1.308-95.836-3.925s-58.147-7.956-81.887-16.019c-23.741-8.061-42.722-19.74-56.944-35.035s-21.333-35.685-21.333-61.169zM372.84 685.242c29.189 7.765 75.574 11.647 139.16 11.647 65.685 0 113.207-3.712 142.575-11.136 29.363-7.424 47.654-17.752 54.874-30.985h-392.798c8.271 12.551 27.001 22.709 56.189 30.473zM486.4 481.186h-179.201v123.806h179.201v-123.806zM307.199 431.407h409.601v-109.764c0-15.872-5.547-29.197-16.64-39.983s-24.802-16.179-41.122-16.179h-294.074c-16.323 0-30.031 5.393-41.125 16.179s-16.64 24.111-16.64 39.983v109.764zM716.8 481.186h-179.2v123.806h179.2v-123.806zM424.467 317.397c-8.468-8.235-19.113-12.348-31.934-12.348s-23.466 4.113-31.934 12.348c-8.468 8.23-12.701 18.581-12.701 31.049 0 12.463 4.233 22.814 12.701 31.044 8.468 8.235 19.113 12.348 31.934 12.348s23.467-4.113 31.934-12.348c8.467-8.23 12.7-18.581 12.7-31.044 0-12.467-4.233-22.818-12.7-31.049zM663.403 317.397c-8.469-8.235-19.115-12.348-31.936-12.348s-23.467 4.113-31.936 12.348c-8.465 8.23-12.698 18.581-12.698 31.049 0 12.463 4.233 22.814 12.698 31.044 8.469 8.235 19.115 12.348 31.936 12.348s23.467-4.113 31.936-12.348c8.465-8.23 12.702-18.581 12.702-31.044 0-12.467-4.237-22.818-12.702-31.049z" />
<glyph unicode="&#xe929;" glyph-name="pause" d="M256 768h-21.333v-640h170.667v640h-149.333zM277.333 170.667v554.667h85.333v-554.667h-85.333zM640 768h-21.333v-640h170.667v640h-149.333zM661.333 170.667v554.667h85.333v-554.667h-85.333z" />
<glyph unicode="&#xe92a;" glyph-name="phone" d="M808.316 106.667c-74.586 0-149.875 19.076-225.865 57.233s-144.448 87.774-205.377 148.847c-60.929 61.077-110.562 129.566-148.9 205.461-38.338 75.898-57.507 151.232-57.507 226 0 12.893 4.287 23.637 12.862 32.233s19.293 12.893 32.154 12.893h106.029c12.202 0 22.645-3.636 31.329-10.909s14.292-16.749 16.82-28.43l21.271-102.483c1.978-11.13 1.8-21.226-0.536-30.29s-7.269-16.819-14.8-23.265l-93.248-87.937c37.706-63.693 80.757-119.479 129.154-167.36s104.696-89.95 168.893-126.204l90.859 94.383c7.531 7.552 15.65 12.659 24.363 15.33 8.713 2.675 18.069 3.021 28.075 1.037l90.197-18.513c11.652-2.701 21.107-8.363 28.361-16.986 7.258-8.623 10.884-19.051 10.884-31.283v-104.631c0-12.894-4.288-23.637-12.86-32.23-8.576-8.597-19.294-12.894-32.158-12.894zM261.607 546.35l82.282 75.871c2.748 2.204 4.535 5.234 5.359 9.091s0.687 7.439-0.413 10.744l-19.045 91.077c-1.1 4.408-3.024 7.714-5.772 9.918s-6.321 3.306-10.718 3.306h-87.971c-3.298 0-6.046-1.102-8.244-3.306s-3.298-4.959-3.298-8.264c0.825-29.367 5.414-60.030 13.769-91.987s19.706-64.106 34.052-96.449zM620.582 193.118c28.966-14.383 59.844-25.015 92.629-31.902 32.789-6.891 61.355-10.581 85.705-11.076 3.298 0 6.046 1.101 8.247 3.307 2.197 2.202 3.298 4.958 3.298 8.265v86.285c0 4.407-1.101 7.987-3.298 10.743-2.202 2.752-5.5 4.681-9.894 5.786l-79.313 16.282c-3.302 1.101-6.187 1.237-8.657 0.414-2.475-0.828-5.086-2.62-7.834-5.376l-80.883-82.726z" />
<glyph unicode="&#xe92b;" glyph-name="info" d="M512 0c-247.423 0-448 200.576-448 448s200.577 448 448 448c247.424 0 448-200.577 448-448s-200.576-448-448-448zM512-64c282.771 0 512 229.229 512 512s-229.229 512-512 512c-282.77 0-512-229.23-512-512s229.23-512 512-512zM511.9 652.75c-21.208 0-38.4-17.192-38.4-38.4s17.192-38.4 38.4-38.4c21.208 0 38.4 17.192 38.4 38.4s-17.192 38.4-38.4 38.4zM537.544 499.153h-51.2v-307.197h51.2v307.197z" />
<glyph unicode="&#xe92c;" glyph-name="play" d="M213.333 746.667l597.333-298.667-597.333-298.667v597.333zM257.197 675.694v-455.389l455.388 227.695-455.388 227.694z" />
<glyph unicode="&#xe92d;" glyph-name="reloj" d="M938.667 448c0 235.642-191.027 426.667-426.667 426.667-235.642 0-426.667-191.025-426.667-426.667 0-235.639 191.025-426.667 426.667-426.667 235.639 0 426.667 191.027 426.667 426.667zM981.333 448c0-259.204-210.129-469.333-469.333-469.333-259.206 0-469.333 210.129-469.333 469.333 0 259.206 210.128 469.333 469.333 469.333s469.333-210.128 469.333-469.333zM533.333 786.449v-341.252l158.835 105.887 23.663-35.5-225.165-150.114v420.979h42.667z" />
<glyph unicode="&#xe92e;" glyph-name="train" d="M213.333 315.076v388.924c0 27.843 8 50.229 24 67.159s37.675 29.894 65.025 38.892c27.351 8.998 59.146 14.906 95.386 17.724 36.24 2.816 74.324 4.225 114.256 4.225 41.463 0 80.26-1.408 116.39-4.225s67.746-8.725 94.852-17.724c27.102-8.998 48.448-21.963 64.038-38.892s23.386-39.316 23.386-67.159v-388.924c0-34.295-11.938-63.386-35.814-87.262s-52.966-35.814-87.262-35.814l64-64v-21.333h-36.105l-85.333 85.333h-236.306l-85.333-85.333h-36.102v21.333l64 64c-34.298 0-63.385 11.938-87.262 35.814s-35.815 52.966-35.815 87.262zM512 789.333c-83.584 0-144.437-5.539-182.564-16.615s-61.128-27.419-69.005-49.025h504.122c-7.381 21.935-30.178 38.359-68.39 49.271-38.208 10.913-99.597 16.369-184.162 16.369zM256 490.667h234.667v190.358h-234.667v-190.358zM687.59 448v0zM533.333 490.667h234.667v190.358h-234.667v-190.358zM362.667 293.743c13.566 0 24.889 4.54 33.969 13.619 9.080 9.084 13.62 20.403 13.62 33.971s-4.54 24.887-13.62 33.971c-9.080 9.079-20.403 13.619-33.969 13.619s-24.889-4.54-33.969-13.619c-9.080-9.084-13.62-20.403-13.62-33.971s4.54-24.887 13.62-33.971c9.080-9.079 20.403-13.619 33.969-13.619zM661.333 293.743c13.568 0 24.887 4.54 33.971 13.619 9.079 9.084 13.619 20.403 13.619 33.971s-4.54 24.887-13.619 33.971c-9.084 9.079-20.403 13.619-33.971 13.619s-24.887-4.54-33.971-13.619c-9.079-9.084-13.619-20.403-13.619-33.971s4.54-24.887 13.619-33.971c9.084-9.079 20.403-13.619 33.971-13.619zM336.411 234.667h351.18c22.319 0 41.297 7.821 56.943 23.467s23.467 34.624 23.467 56.943v132.924h-512v-132.924c0-22.319 7.822-41.297 23.467-56.943s34.626-23.467 56.944-23.467zM512 723.693v0z" />
<glyph unicode="&#xe92f;" glyph-name="warning" d="M106.667 448c0 223.86 181.474 405.333 405.333 405.333s405.333-181.474 405.333-405.333c0-223.859-181.474-405.333-405.333-405.333s-405.333 181.474-405.333 405.333zM512 896c-247.424 0-448-200.576-448-448s200.576-448 448-448c247.424 0 448 200.576 448 448s-200.576 448-448 448zM482.918 680.729h58.18v-349.090h-58.18v349.090zM482.918 273.459h58.18v-58.185h-58.18v58.185z" />
<glyph unicode="&#xe930;" glyph-name="adult1" d="M682.667 597.333c0-94.255-76.412-170.667-170.667-170.667-94.257 0-170.667 76.412-170.667 170.667 0 94.257 76.41 170.667 170.667 170.667 94.255 0 170.667-76.41 170.667-170.667zM638.626 425.626c52.595 38.852 86.707 101.299 86.707 171.708 0 117.821-95.514 213.333-213.333 213.333s-213.333-95.513-213.333-213.333c0-70.409 34.111-132.855 86.708-171.708-43.586-4.553-84.535-23.923-115.806-55.194-36.007-36.006-56.236-84.843-56.236-135.765l0.010-149.333h42.666l-0.009 149.333c0 39.607 15.733 77.589 43.739 105.596s65.989 43.738 105.594 43.738h28.621l19.247-44.907c22.165-51.716 95.484-51.716 117.649 0l19.247 44.907h28.57c39.607 0 77.589-15.731 105.596-43.738 28.002-28.006 43.738-65.988 43.738-105.596l0.009-149.333h42.667l-0.009 149.333c0 50.923-20.228 99.759-56.235 135.765-31.27 31.27-72.222 50.641-115.806 55.194zM543.676 384h-63.3l12.041-28.1c7.39-17.237 31.829-17.237 39.219 0l12.041 28.1zM439.206 513.783c-16.836 15.983-27.138 35.087-31.683 48.724l40.477 13.492c2.564-7.696 9.331-20.592 20.582-31.275 10.889-10.339 25.404-18.138 44.514-18.138s33.621 7.799 44.51 18.138c11.251 10.683 18.018 23.578 20.582 31.275l40.478-13.492c-4.544-13.637-14.848-32.741-31.684-48.724-17.199-16.329-41.796-29.862-73.886-29.862s-56.691 13.534-73.89 29.862zM384 85.333v106.667h-42.667v-106.667h42.667zM682.667 192v-106.667h-42.667v106.667h42.667z" />
<glyph unicode="&#xe931;" glyph-name="child1" d="M853.333 448c0-188.514-152.819-341.333-341.333-341.333s-341.333 152.819-341.333 341.333c0 188.513 152.82 341.333 341.333 341.333s341.333-152.82 341.333-341.333zM512 149.333c164.949 0 298.667 133.717 298.667 298.667s-133.717 298.667-298.667 298.667c-8.341 0-16.602-0.342-24.772-1.012l-7.189-43.151c-7.701-46.193 46.515-76.779 82.069-46.303l27.767-32.395c-65.818-56.415-166.176 0.204-151.923 85.712l4.847 29.091c-131.581-31.215-229.466-149.481-229.466-290.609 0-164.949 133.718-298.667 298.667-298.667zM384 448c23.564 0 42.667 19.102 42.667 42.667s-19.103 42.667-42.667 42.667c-23.564 0-42.667-19.102-42.667-42.667s19.103-42.667 42.667-42.667zM682.667 490.667c0-23.565-19.102-42.667-42.667-42.667s-42.667 19.102-42.667 42.667c0 23.565 19.102 42.667 42.667 42.667s42.667-19.102 42.667-42.667zM323.042 351.693c16.941-28.233 77.094-95.689 188.958-95.689 55.603 0 100.412 16.755 132.489 37.094 16 10.138 28.983 21.265 38.656 31.838 9.233 10.095 16.836 21.205 19.955 31.603l-40.866 12.262c-0.435-1.455-3.14-6.942-10.573-15.066-6.993-7.65-17.037-16.375-30.016-24.606-25.877-16.401-62.844-30.46-109.645-30.46-92.933 0-140.869 55.804-152.372 74.974l-36.586-21.952z" />
<glyph unicode="&#xe932;" glyph-name="zoom-in" d="M738.539 251.588c61.291 68.407 98.569 158.78 98.569 257.86 0 213.486-173.069 386.551-386.556 386.551s-386.551-173.065-386.551-386.551c0-213.487 173.065-386.556 386.551-386.556 99.059 0 189.414 37.261 257.813 98.53l221.389-221.389 30.17 30.17-221.385 221.385zM794.441 509.449c0-189.926-153.963-343.889-343.889-343.889-189.922 0-343.885 153.963-343.885 343.889 0 189.922 153.963 343.885 343.885 343.885 189.926 0 343.889-153.963 343.889-343.885zM429.082 681.375h42.987v-150.44h150.43v-42.982h-150.43v-150.464h-42.987v150.464h-150.468v42.982h150.468v150.44z" />
<glyph unicode="&#xe933;" glyph-name="zoom-out" d="M837.107 509.449c0-99.081-37.278-189.453-98.569-257.86l221.385-221.385-30.17-30.17-221.389 221.389c-68.399-61.269-158.754-98.53-257.813-98.53-213.486 0-386.551 173.069-386.551 386.556s173.065 386.551 386.551 386.551c213.487 0 386.556-173.065 386.556-386.551zM450.551 165.559c189.926 0 343.889 153.963 343.889 343.889 0 189.922-153.963 343.885-343.889 343.885-189.922 0-343.885-153.963-343.885-343.885 0-189.926 153.963-343.889 343.885-343.889zM622.498 487.953v42.982h-343.884v-42.982h343.884z" />
<glyph unicode="&#xe934;" glyph-name="Check-in-online_Small" d="M896.009 867.833h-768.002c-9.506 0-18.621-3.776-25.343-10.497s-10.497-15.837-10.497-25.343v-512.667c0-9.502 3.776-18.62 10.497-25.34 6.721-6.724 15.837-10.5 25.343-10.5h308.738v-84.378h-71.682v-20.48h293.89v20.48h-71.68v84.378h308.736c9.502 0 18.62 3.776 25.34 10.5 6.724 6.72 10.5 15.838 10.5 25.34v512.667c0 9.506-3.776 18.621-10.5 25.343-6.72 6.721-15.838 10.497-25.34 10.497zM566.588 283.383v-84.173h-109.158v84.173h109.158zM911.369 319.223c0-4.070-1.621-7.979-4.501-10.859s-6.788-4.501-10.859-4.501h-768.002c-4.074 0-7.981 1.621-10.861 4.501s-4.499 6.788-4.499 10.859v71.68h798.722v-71.68zM112.647 411.383v420.61c0 4.074 1.618 7.981 4.499 10.861s6.787 4.499 10.861 4.499h768.002c4.070 0 7.979-1.618 10.859-4.499s4.501-6.787 4.501-10.861v-420.559l-798.722-0.051zM733.513 97.126c-1.626 2.274-3.772 4.126-6.255 5.406-2.483 1.284-5.235 1.958-8.030 1.967h-414.463c-2.796-0.004-5.551-0.674-8.036-1.954-2.484-1.284-4.627-3.14-6.249-5.419l-29.389-41.216c-1.868-2.62-2.979-5.705-3.212-8.917-0.233-3.209 0.42-6.421 1.889-9.284 1.469-2.867 3.697-5.269 6.441-6.955s5.897-2.581 9.116-2.594h473.343c3.226 0.004 6.383 0.896 9.135 2.573 2.752 1.681 4.988 4.087 6.46 6.95 1.476 2.867 2.133 6.084 1.903 9.297-0.23 3.217-1.34 6.306-3.213 8.93l-29.44 41.216zM281.008 48.64l25.242 35.379h411.442l25.293-35.379h-461.976zM512.030 793.812c-34.547 0.010-68.318-10.224-97.042-29.408-28.727-19.184-51.119-46.456-64.346-78.367s-16.692-67.028-9.959-100.908c6.733-33.881 23.362-65.006 47.784-89.432 24.422-24.431 55.539-41.067 89.421-47.812 33.877-6.741 68.996-3.285 100.911 9.929 31.915 13.218 59.191 35.601 78.383 64.324 19.196 28.721 29.44 62.488 29.44 97.032-0.043 46.297-18.449 90.687-51.179 123.428-32.734 32.742-77.12 51.161-123.413 51.215zM512.030 465.058c-30.498-0.013-60.309 9.024-85.67 25.958s-45.127 41.011-56.802 69.184c-11.674 28.172-14.732 59.173-8.785 89.083s20.631 57.383 42.193 78.947c21.563 21.563 49.036 36.247 78.945 42.193 29.914 5.947 60.911 2.889 89.084-8.785s52.25-31.442 69.184-56.802c16.939-25.36 25.971-55.173 25.963-85.668-0.043-40.861-16.294-80.036-45.184-108.927-28.894-28.894-68.070-45.146-108.928-45.184zM484.877 574.468l-42.189 42.189-14.438-14.49 56.627-56.627 135.782 135.782-14.49 14.49-121.293-121.344z" />
<glyph unicode="&#xe935;" glyph-name="h_small" d="M549.824 829.292c-94.106 0-184.526-34.509-254.568-97.178l13.67-15.258c66.304 59.29 151.86 91.955 240.897 91.955 199.373 0 361.523-162.202 361.523-361.524s-162.202-361.523-361.523-361.523c-199.323 0-347.7 148.838-360.603 336.589l57.19-57.19 14.49 14.49-82.893 82.893-82.842-82.893 14.49-14.49 58.931 58.931c12.083-199.885 178.432-358.81 381.236-358.81s382.003 171.366 382.003 382.003-171.366 382.004-382.003 382.004zM327.186 383.13v-15.155h126.207v22.272h-87.551l37.939 37.171c22.016 21.504 39.218 39.475 39.218 67.789 0 31.642-22.271 55.398-57.906 55.398s-57.446-24.012-57.446-57.19v-11.878h24.013v11.622c0 20.48 12.39 35.174 33.382 35.174s33.382-13.158 33.382-33.126c0-19.968-11.11-32.614-30.618-52.122l-60.723-59.955h0.102zM551.347 547.583l-88.013-110.796v-13.414h91.085v-55.398h23.757v55.398h38.195v21.248h-38.195v102.962h-26.829zM554.368 444.621h-58.675l58.675 74.65v-74.65zM639.667 554.146v-186.163h23.040v67.533c0 22.784 14.694 38.963 36.915 38.963s35.686-15.411 35.686-38.963v-67.533h23.296v71.834c0 32.358-21.76 55.91-53.402 55.91-23.296 0-37.683-15.667-42.496-25.805v84.224h-23.040z" />
<glyph unicode="&#xe936;" glyph-name="albornoz_small" d="M551.791 785.145h-54.733l-26.573 82.688h-238.031l-26.522-82.688h-54.733c-15.648-0.027-30.648-6.255-41.713-17.32s-17.293-26.065-17.32-41.713v-427.931c0.027-35.682 14.21-69.892 39.436-95.13s59.435-39.433 95.117-39.475h249.448c35.682 0.043 69.888 14.238 95.117 39.475 25.225 25.237 39.407 59.447 39.437 95.13v427.931c-0.030 15.631-6.242 30.615-17.284 41.677-11.046 11.062-26.018 17.303-41.647 17.356zM113.005 342.519v40.038h477.339v-40.038h-477.339zM372.794 533.137l-118.067 314.216h195.227l-77.16-314.216zM364.141 497.963l-12.954-52.685-126.515 331.266 15.974 49.92 123.494-328.501zM361.94 403.038l102.402 416.923 15.002-46.797-86.376-370.127h-31.027zM151.2 764.665h56.32l135.322-354.306-1.792-7.322h-228.403v323.074c0.013 10.221 4.080 20.020 11.307 27.247s17.025 11.294 27.247 11.307zM226.72 184.055c-30.251 0.043-59.25 12.079-80.636 33.476-21.385 21.393-33.411 50.398-33.438 80.649v23.859h208.947l-32.614-138.24-62.259 0.256zM310.023 184.055l32.614 138.24h31.437l-32.205-138.24h-31.846zM590.345 298.18c-0.030-30.268-12.070-59.285-33.476-80.683-21.406-21.402-50.432-33.425-80.7-33.442h-113.256l32.205 138.24h195.227v-24.115zM414.010 403.038l84.379 361.627h53.402c10.219-0.013 20.019-4.080 27.243-11.307 7.228-7.227 11.294-17.025 11.311-27.247v-323.074h-176.335zM909.018 274.441c-25.6 21.658-65.075 20.48-96.461-3.277-6.212-4.736-11.849-10.185-16.798-16.23l7.68 89.856c0 0.614 0 1.178 0 1.792s0 1.229 0 1.843c0.482 7.859 0.034 15.748-1.331 23.501-7.526 40.499-37.167 68.762-72.034 68.762-33.382 0-62.724-26.726-71.326-65.075-1.941-9.007-2.633-18.244-2.044-27.443 0-0.768 0-1.536 0-2.304h0.307c-0.026-0.444-0.026-0.887 0-1.331l10.543-122.88c0-43.571 16.64-74.445 43.418-84.173-26.368-37.12-27.081-73.984-0.764-96.41 9.737-8.555 22.259-13.269 35.226-13.261 22.426 0 47.104 13.517 69.171 39.27l87.804 86.784c6.532 6.37 12.181 13.585 16.794 21.453 20.582 35.789 16.388 76.544-10.185 99.123zM895.347 258.569c15.923-13.568 19.866-38.195 10.803-61.44-7.027 15.057-17.353 28.339-30.212 38.861-12.565 11.089-27.558 19.068-43.776 23.296 22.016 12.8 47.057 12.851 63.185-0.717zM678.101 346.479c-0.021 0.444-0.021 0.887 0 1.331 2.202 10.598 23.706 21.709 52.070 21.709 29.542 0 50.487-10.906 52.382-21.248 0-0.512 0-1.024 0-1.536l-2.56-29.389c-15.334 8.055-32.457 12.087-49.766 11.725-17.229 0.294-34.261-3.699-49.566-11.622l-2.56 29.030zM730.274 419.797c20.74 0 39.526-15.974 47.974-39.373-15.044 7.057-31.509 10.56-48.124 10.24-16.559 0.38-32.973-3.127-47.923-10.24 8.397 23.347 27.183 39.219 48.073 39.219v0.154zM688.751 222.37l-6.093 70.707c7.629 7.629 24.427 14.95 47.467 14.95s39.932-7.168 47.663-15.36l-5.986-69.581v-1.28l-47.159-66.099c-26.368 3.994-35.891 36.301-35.891 66.509v0.154zM799.548 82.031l-0.61-0.666c-20.941-24.627-51.661-43.878-74.957-24.013s-9.22 53.248 11.721 77.875l38.093 53.248c12.39 0 28.625-7.475 42.654-19.405 18.125-15.36 26.624-33.229 26.419-44.288l-43.319-42.752zM860.992 142.601c-6.366 16.602-16.956 31.249-30.724 42.496-12.279 10.722-26.876 18.449-42.65 22.579l20.48 28.877c3.533 3.174 10.24 4.045 18.637 2.202 13.18-3.435 25.357-9.946 35.533-18.995 21.043-17.92 30.31-38.554 27.341-48.589-0.614-0.717-1.229-1.382-1.89-2.048l-26.726-26.522z" />
<glyph unicode="&#xe937;" glyph-name="bajada_small" d="M512.009 28.151c-111.313 0.124-218.030 44.395-296.739 123.106-78.709 78.707-122.981 185.425-123.103 296.734h20.48c0.026-91.435 31.427-180.092 88.957-251.157 57.53-71.070 137.705-120.243 227.132-139.311 89.425-19.063 182.686-6.865 264.196 34.56 81.515 41.425 146.347 109.564 183.663 193.037s44.855 177.225 21.367 265.592c-23.492 88.366-76.595 165.995-150.438 219.917s-163.955 80.873-255.279 76.349c-91.322-4.524-178.327-40.249-246.479-101.205l-13.67 15.36c50.741 45.316 111.734 77.623 177.729 94.139 65.997 16.517 135.015 16.748 201.123 0.676 66.103-16.073 127.313-47.969 178.355-92.943 51.046-44.974 90.398-101.679 114.667-165.233s32.734-132.053 24.657-199.603c-8.073-67.55-32.439-132.13-71.006-188.173-38.562-56.043-90.172-101.875-150.374-133.555-60.207-31.676-127.211-48.247-195.238-48.29zM875.059 448.004h-20.48c-0.124 90.819-36.254 177.885-100.476 242.104-64.218 64.22-151.283 100.352-242.103 100.474v20.48c96.252-0.122 188.527-38.412 256.589-106.473 68.058-68.060 106.347-160.335 106.47-256.586zM511.974 84.941c-96.25 0.124-188.525 38.413-256.585 106.47-68.061 68.062-106.351 160.337-106.473 256.589h20.48c0.122-90.82 36.254-177.886 100.474-242.103 64.22-64.222 151.285-100.352 242.104-100.476v-20.48zM512.013 136.388l-141.263 207.974h79.823v408.575h122.88v-408.575h80.333l-141.773-207.974zM409.611 323.883l102.402-151.040 102.4 151.040h-61.952v408.575h-81.408v-408.575h-61.442z" />
<glyph unicode="&#xe938;" glyph-name="bar_Small" d="M881.024 739.335v25.6h-100.813l-31.488-103.168h-81.562l-32.87 107.52 142.592 38.195-3.277 12.339c-6.451 24.064-38.195 39.219-97.28 46.387-26.27 3.057-52.706 4.459-79.155 4.198h-3.174l-2.765-1.536c-23.061-13.008-45.291-27.44-66.56-43.213-47.36-35.84-67.277-64.614-60.826-88.678l3.686-12.493 142.029 38.042 30.72-100.813h-87.91l131.482-610.507h-75.878v-25.6h184.934v25.6h-76.083l131.686 610.558h-73.062l23.706 77.568h81.869zM601.114 844.807c54.784 0.768 114.227-7.373 137.677-21.094l-246.426-66.048c13.466 23.654 60.928 60.262 108.749 87.142zM605.363 537.248c47.002 36.198 71.117 20.48 94.413 5.683 4.045-2.611 7.885-5.12 11.827-7.27 12.45-7.358 26.603-11.348 41.062-11.569 15.206 0.175 30.037 4.745 42.701 13.157l-94.925-441.547-95.078 441.547zM805.043 582.356c-6.285-9.257-14.281-17.233-23.552-23.501-18.381-11.981-37.171-12.288-57.498-0.87-3.226 1.843-6.758 4.096-10.24 6.451-23.654 15.36-58.522 37.683-114.176 0l-15.36 71.68h232.755l-11.93-53.76zM576.563 466.543h-130.509l21.453 66.253h72.038v25.6h-90.675l-29.697-91.853h-80.486c-2.465 20.002-10.653 38.869-23.581 54.327-12.928 15.463-30.044 26.863-49.294 32.831s-39.813 6.252-59.22 0.816c-19.407-5.436-36.831-16.36-50.18-31.458-13.348-15.1-22.053-33.732-25.068-53.658-3.015-19.93-0.212-40.303 8.072-58.675s21.696-33.963 38.626-44.894c16.93-10.935 36.657-16.747 56.811-16.742v25.6c-15.089-0.004-29.865 4.305-42.583 12.429s-22.844 19.712-29.185 33.408c-6.34 13.692-8.63 28.911-6.597 43.866 2.033 14.95 8.302 29.009 18.068 40.512s22.619 19.972 37.043 24.405c14.423 4.431 29.815 4.643 44.355 0.61 14.54-4.036 27.622-12.147 37.701-23.377s16.732-25.109 19.176-40h-102.4l170.138-250.368v-164.966h-79.411v-25.6h184.936v25.6h-79.668v164.966l170.139 250.368zM393.624 242.901l-68.71 101.12c34.867 24.115 53.043 12.493 72.141 0 3.328-2.15 6.758-4.403 10.24-6.298 10.953-6.498 23.412-10.027 36.148-10.24 2.79-0.004 5.581 0.201 8.346 0.614l-58.164-85.197zM528.23 440.943l-41.318-60.774h-0.461c-5.291-7.578-11.959-14.093-19.661-19.2-6.886-4.766-15.036-7.373-23.407-7.479-8.375-0.111-16.589 2.278-23.596 6.865-2.867 1.587-5.786 3.482-8.858 5.478-20.736 13.363-51.2 33.126-100.403-0.512l-51.2 75.725 268.904-0.102z" />
<glyph unicode="&#xe939;" glyph-name="Botella-agua_small" d="M578.624 704.659c-21.35 12.339-34.611 34.662-34.611 58.214 9.677 1.126 17.203 9.267 17.203 19.2v66.406c0 10.701-8.704 19.354-19.354 19.354h-91.034c-10.701 0-19.354-8.704-19.354-19.354v-66.406c0-9.933 7.578-18.074 17.203-19.149 0-23.603-13.261-45.926-34.612-58.266-36.966-21.402-58.982-58.88-58.982-100.25v-576.258h282.523v576.258c0 41.37-22.067 78.848-58.982 100.25zM451.955 847.353h88.832v-64.154h-88.832v64.154zM424.357 686.944c27.598 15.974 44.75 45.005 44.801 75.776h54.426c0.051-30.771 17.203-59.802 44.8-75.776 30.566-17.715 48.794-48.538 48.794-82.534v-59.238c-7.936-11.469-45.312-59.24-100.659-28.162-3.994 2.253-8.192 4.966-12.595 7.782-28.211 18.178-66.048 42.549-128.308 0.973v78.594c0 33.997 18.227 64.819 48.794 82.534l-0.051 0.051zM617.178 48.631h-241.563v205.568h241.563v-205.568zM617.178 274.679h-241.563v53.453h241.563v-53.453zM617.178 348.612h-241.563v54.989h241.563v-54.989zM375.615 424.081v76.493c58.369 44.955 89.601 24.832 117.198 7.066 4.71-3.021 9.165-5.888 13.67-8.448 16.435-9.216 31.949-12.954 46.234-12.954 26.522 0 48.691 12.902 64.461 27.699v-89.805l-241.563-0.051z" />
<glyph unicode="&#xe93a;" glyph-name="Check-in-online_Small1" d="M896.009 867.833h-768.002c-9.506 0-18.621-3.776-25.343-10.497s-10.497-15.837-10.497-25.343v-512.667c0-9.502 3.776-18.62 10.497-25.34 6.721-6.724 15.837-10.5 25.343-10.5h308.738v-84.378h-71.682v-20.48h293.89v20.48h-71.68v84.378h308.736c9.502 0 18.62 3.776 25.34 10.5 6.724 6.72 10.5 15.838 10.5 25.34v512.667c0 9.506-3.776 18.621-10.5 25.343-6.72 6.721-15.838 10.497-25.34 10.497zM566.588 283.383v-84.173h-109.158v84.173h109.158zM911.369 319.223c0-4.070-1.621-7.979-4.501-10.859s-6.788-4.501-10.859-4.501h-768.002c-4.074 0-7.981 1.621-10.861 4.501s-4.499 6.788-4.499 10.859v71.68h798.722v-71.68zM112.647 411.383v420.61c0 4.074 1.618 7.981 4.499 10.861s6.787 4.499 10.861 4.499h768.002c4.070 0 7.979-1.618 10.859-4.499s4.501-6.787 4.501-10.861v-420.559l-798.722-0.051zM733.513 97.126c-1.626 2.274-3.772 4.126-6.255 5.406-2.483 1.284-5.235 1.958-8.030 1.967h-414.463c-2.796-0.004-5.551-0.674-8.036-1.954-2.484-1.284-4.627-3.14-6.249-5.419l-29.389-41.216c-1.868-2.62-2.979-5.705-3.212-8.917-0.233-3.209 0.42-6.421 1.889-9.284 1.469-2.867 3.697-5.269 6.441-6.955s5.897-2.581 9.116-2.594h473.343c3.226 0.004 6.383 0.896 9.135 2.573 2.752 1.681 4.988 4.087 6.46 6.95 1.476 2.867 2.133 6.084 1.903 9.297-0.23 3.217-1.34 6.306-3.213 8.93l-29.44 41.216zM281.008 48.64l25.242 35.379h411.442l25.293-35.379h-461.976zM512.030 793.812c-34.547 0.010-68.318-10.224-97.042-29.408-28.727-19.184-51.119-46.456-64.346-78.367s-16.692-67.028-9.959-100.908c6.733-33.881 23.362-65.006 47.784-89.432 24.422-24.431 55.539-41.067 89.421-47.812 33.877-6.741 68.996-3.285 100.911 9.929 31.915 13.218 59.191 35.601 78.383 64.324 19.196 28.721 29.44 62.488 29.44 97.032-0.043 46.297-18.449 90.687-51.179 123.428-32.734 32.742-77.12 51.161-123.413 51.215zM512.030 465.058c-30.498-0.013-60.309 9.024-85.67 25.958s-45.127 41.011-56.802 69.184c-11.674 28.172-14.732 59.173-8.785 89.083s20.631 57.383 42.193 78.947c21.563 21.563 49.036 36.247 78.945 42.193 29.914 5.947 60.911 2.889 89.084-8.785s52.25-31.442 69.184-56.802c16.939-25.36 25.971-55.173 25.963-85.668-0.043-40.861-16.294-80.036-45.184-108.927-28.894-28.894-68.070-45.146-108.928-45.184zM484.877 574.468l-42.189 42.189-14.438-14.49 56.627-56.627 135.782 135.782-14.49 14.49-121.293-121.344z" />
<glyph unicode="&#xe93b;" glyph-name="Copa-bienvenida_small" d="M918.711 114.423l-84.378-24.832-74.394 252.621c23.501 9.37 42.854 26.419 55.142 48.947 13.926 25.498 17.050 54.938 8.858 82.79l-103.322 350.977c-9.165 31.027-60.928 41.267-120.422 23.706-47.258-13.926-80.845-39.885-88.115-65.536-2.918 10.24-10.035 20.685-21.197 30.618-16.486 14.694-40.243 27.085-66.917 34.918-59.494 17.51-111.258 7.322-120.422-23.706l-103.322-350.977c-8.192-27.904-5.069-57.293 8.858-82.79 12.288-22.477 31.642-39.578 55.142-48.947l-74.394-252.621-84.378 24.832-5.786-19.661 188.416-55.501 5.786 19.661-84.378 24.832 74.394 252.672c6.963-1.382 13.926-2.099 20.89-2.099 17.971 0 35.738 4.506 51.917 13.312 25.498 13.926 44.083 36.915 52.326 64.819l103.115 350.26 103.117-350.26c8.192-27.904 26.778-50.893 52.326-64.819 16.23-8.806 33.997-13.312 51.917-13.312 6.963 0 13.978 0.717 20.941 2.099l74.394-252.672-84.378-24.832 5.786-19.661 188.416 55.501-5.786 19.661h-0.154zM540.958 736.812c4.864-1.69 10.189-3.021 16.026-3.942 6.4-0.973 13.21-1.485 20.378-1.485 17.152 0 35.994 2.867 54.835 8.397 35.738 10.547 63.59 27.955 78.285 46.899l35.635-120.934c-10.803 4.454-22.477 6.707-34.509 6.195-21.914-0.819-42.189-10.189-57.139-26.266-22.528-24.32-60.16-26.266-85.146-5.018l-28.314 96.154h-0.051zM605.879 829.074c17.715 5.222 34.458 7.475 48.896 7.475 25.088 0 43.008-6.912 46.080-17.357 4.813-16.435-26.010-45.466-74.496-59.75-23.859-7.014-47.36-9.267-66.253-6.298-15.718 2.458-26.47 8.499-28.723 16.179-4.864 16.435 26.010 45.466 74.496 59.75zM369.132 836.549c14.438 0 31.181-2.304 48.896-7.475 23.857-7.014 44.849-17.869 59.083-30.566 11.878-10.598 17.664-21.504 15.411-29.184-4.864-16.435-46.49-24.166-94.974-9.882-48.486 14.285-79.309 43.315-74.496 59.75 3.072 10.445 20.992 17.357 46.080 17.357zM454.635 640.658c-24.986-21.248-62.616-19.302-85.144 5.018-14.899 16.077-35.174 25.446-57.139 26.266-12.032 0.461-23.706-1.741-34.509-6.195l35.635 120.934c14.643-18.944 42.547-36.403 78.285-46.899 19.61-5.786 38.398-8.55 55.038-8.55 13.67 0 25.958 1.894 36.147 5.478l-28.262-96.051h-0.051zM389.152 418.295c-6.656-22.63-21.76-41.318-42.445-52.634-20.736-11.315-44.595-13.824-67.226-7.168s-41.318 21.76-52.634 42.445c-11.315 20.736-13.824 44.595-7.168 67.226l49.613 168.551c11.776 10.035 26.624 15.309 42.291 14.694 16.435-0.614 31.693-7.629 42.906-19.712 16.179-17.459 38.195-26.266 60.314-26.266 10.65 0 21.297 2.15 31.384 6.246l-56.933-193.434-0.102 0.051zM677.15 365.662c-20.736 11.315-35.789 29.952-42.445 52.634l-56.934 193.434c10.035-4.147 20.685-6.246 31.334-6.246 22.118 0 44.134 8.858 60.314 26.266 22.528 24.32 60.16 26.266 85.146 5.018l49.613-168.551c6.656-22.63 4.096-46.49-7.168-67.226-11.315-20.736-29.952-35.789-52.634-42.445-22.63-6.656-46.49-4.096-67.226 7.168v-0.051z" />
<glyph unicode="&#xe93c;" glyph-name="Desayuno_small" d="M921.634 378.359h-25.805c-3.994 77.67-53.35 101.888-73.523 108.595-0.358 15.565-5.018 30.771-14.029 44.032-12.646 18.687-31.795 31.129-54.016 34.969l-11.418 1.997c0.205 2.867 0.358 5.376 0.358 7.475 0 40.448-68.915 62.822-116.531 62.822s-116.531-22.374-116.531-62.822c0-1.946 0.102-4.352 0.307-7.014l-14.285-2.458c-22.221-3.84-41.421-16.282-54.016-34.969-9.114-13.517-13.875-28.979-14.029-44.8h-253.644l8.96-95.078c-30.72-2.304-58.573-18.739-75.52-44.902-18.739-29.030-20.838-64.768-5.837-98.15 8.704-19.354 24.064-34.867 43.213-43.674 18.483-8.499 37.837-11.776 56.627-9.677l3.635-38.349c3.635-38.758 35.789-67.994 74.752-67.994h112.845c38.963 0 71.065 29.235 74.752 67.994l18.995 201.523h434.739v20.48zM820.156 466.116c17.203-6.758 51.558-27.699 55.091-87.757h-73.83l18.739 87.757zM740.437 547.575l10.291-1.792c16.691-2.918 31.078-12.237 40.55-26.265s12.749-30.874 9.216-47.462l-20.070-93.747h-72.294c6.963 32.461 25.344 119.859 32.256 169.215l0.051 0.051zM626.569 617.77c46.694 0 96.051-21.76 96.051-42.342 0-26.726-22.221-136.191-35.43-197.068h-121.293c-13.21 60.877-35.43 170.393-35.43 197.068 0 20.582 49.408 42.342 96.051 42.342h0.051zM447.471 158.251c-2.662-28.211-26.009-49.459-54.323-49.459h-112.845c-28.314 0-51.712 21.248-54.323 49.459l-5.734 61.030-11.418-2.662c-17.818-4.198-36.762-1.997-54.886 6.349-14.643 6.758-26.419 18.637-33.126 33.485-12.134 26.931-10.547 55.552 4.352 78.643 14.49 22.426 39.066 35.84 65.741 35.84 1.126 0 2.253 0 3.328-0.102l11.776-0.512-9.011 95.437h279.552l-29.030-307.405-0.051-0.102zM448.495 486.135c0.205 11.776 3.738 23.296 10.547 33.331 9.472 14.028 23.91 23.346 40.55 26.265l13.056 2.253c6.861-49.305 25.344-137.113 32.358-169.676h-56.218l10.189 107.827h-50.483zM136.226 326.251c-12.083-19.712-12.646-43.622-1.485-65.638 5.12-10.138 13.466-18.534 23.552-23.757 10.547-5.427 21.709-8.192 32.666-8.192 6.861 0 13.619 1.075 20.122 3.226l7.731 2.56-11.418 120.781-8.090 1.075c-25.498 3.379-49.869-8.499-63.13-30.054h0.051zM167.714 255.031c-6.298 3.226-11.52 8.499-14.694 14.848-7.885 15.514-7.629 32.154 0.666 45.67 7.629 12.39 20.582 20.070 34.97 20.787l8.192-86.835c-9.574-1.28-19.456 0.563-29.133 5.53zM325.345 645.639c17.050-17.050 25.856-37.478 25.395-59.085-0.41-20.582-9.421-40.755-25.395-56.677l14.49-14.49c41.933 41.932 41.933 102.809-0.102 144.844l-14.592 14.131c-15.462 15.462-23.962 36.045-23.962 57.908s8.499 42.445 23.962 57.907l-14.49 14.49c-39.885-39.885-39.885-104.858 0.102-144.845l14.592-14.131v-0.051z" />
<glyph unicode="&#xe93d;" glyph-name="Descuento-AB_Small" d="M907.277 595.771l-2.97-5.12c-1.587-2.765-39.475-70.655-39.475-274.278v-10.24h47.155v-175.718h20.48v465.356h-25.19zM912.038 326.613h-26.675c0.819 123.341 16.077 193.587 26.675 227.634v-227.634zM173.081 486.037c0-13.261-8.499-24.576-20.326-28.774v128.258h-20.48v-128.258c-11.827 4.25-20.378 15.514-20.378 28.774v99.483h-20.48v-99.483c0-24.678 17.562-45.261 40.858-50.022v-305.613h20.48v305.613c23.245 4.762 40.806 25.395 40.806 50.022v99.483h-20.48v-99.483zM444.454 422.042c-19.761 24.678-55.908 28.672-80.535 8.96-11.93-9.574-19.456-23.194-21.146-38.451-1.69-15.206 2.662-30.157 12.237-42.138 11.315-14.131 28.006-21.504 44.8-21.504 12.544 0 25.19 4.096 35.735 12.544 24.678 19.763 28.672 55.91 8.96 80.589h-0.051zM436.314 382.157c-1.075-9.779-5.935-18.534-13.617-24.678-7.68-6.144-17.306-8.909-27.085-7.834s-18.534 5.939-24.678 13.619c-6.144 7.68-8.96 17.306-7.834 27.085 1.075 9.779 5.939 18.534 13.619 24.678 6.758 5.427 14.899 8.038 22.989 8.038 10.803 0 21.555-4.71 28.772-13.824 6.144-7.68 8.96-17.306 7.834-27.085zM751.172 410.778l-86.733 50.893c-4.096 2.406-9.318 1.69-12.595-1.741-10.547-11.008-19.251-14.387-28.518-17.971-12.493-4.864-25.446-9.882-37.99-31.232-11.674-19.917-9.114-35.174-6.81-48.589 2.048-11.878 3.635-21.299-4.301-34.765-7.936-13.517-16.896-16.691-28.262-20.685-12.851-4.557-27.392-9.728-39.066-29.645s-9.114-35.174-6.81-48.589c2.048-11.878 3.635-21.299-4.301-34.765-7.373-12.544-17.766-16.128-29.85-20.275-14.438-4.966-32.461-11.213-39.989-35.686-1.382-4.557 0.512-9.421 4.61-11.827l86.682-50.842c1.638-0.973 3.43-1.434 5.171-1.434 2.714 0 5.427 1.075 7.424 3.174 10.547 11.008 19.251 14.387 28.518 17.971 12.493 4.864 25.446 9.882 37.99 31.232 11.674 19.917 9.114 35.174 6.81 48.589-2.048 11.878-3.635 21.299 4.301 34.765s16.896 16.691 28.262 20.685c12.851 4.557 27.392 9.728 39.066 29.645s9.114 35.174 6.81 48.589c-2.048 11.878-3.635 21.299 4.301 34.765 7.373 12.544 17.766 16.128 29.85 20.275 14.438 4.966 32.461 11.213 39.987 35.686 1.382 4.557-0.512 9.421-4.608 11.827l0.051-0.051zM472.644 153.907c13.21 4.557 29.645 10.24 40.858 29.286 11.674 19.917 9.114 35.174 6.81 48.589-2.048 11.878-3.635 21.299 4.301 34.765 7.936 13.517 16.896 16.691 28.262 20.685 12.851 4.557 27.392 9.728 39.117 29.645 11.674 19.917 9.114 35.174 6.81 48.589-2.048 11.878-3.635 21.299 4.301 34.765 8.96 15.206 16.794 18.278 27.75 22.528 8.448 3.277 18.688 7.219 30.003 17.254l24.422-14.336c-6.4-4.506-12.339-6.861-18.483-9.267-12.493-4.864-25.446-9.882-37.99-31.232-11.674-19.917-9.114-35.174-6.81-48.589 2.048-11.878 3.635-21.299-4.301-34.765-7.936-13.517-16.896-16.691-28.262-20.685-12.851-4.557-27.392-9.728-39.066-29.645s-9.114-35.174-6.81-48.589c2.048-11.878 3.635-21.299-4.301-34.765-7.373-12.544-17.766-16.128-29.85-20.275-11.827-4.096-26.010-9.011-34.918-24.064l-25.702 15.104c5.018 8.499 13.005 11.264 23.962 15.053l-0.102-0.051zM709.137 382.618c-13.21-4.557-29.645-10.24-40.858-29.286-11.674-19.917-9.114-35.174-6.81-48.589 2.048-11.878 3.635-21.299-4.301-34.765-7.936-13.517-16.896-16.691-28.262-20.685-12.851-4.557-27.392-9.728-39.066-29.645s-9.114-35.174-6.81-48.589c2.048-11.878 3.635-21.299-4.301-34.765-8.96-15.206-16.845-18.278-27.75-22.528-8.448-3.277-18.688-7.219-30.003-17.254l-28.826 16.947c5.018 8.499 12.902 11.315 23.859 15.104 13.21 4.557 29.645 10.24 40.858 29.286 11.674 19.917 9.114 35.174 6.81 48.589-2.048 11.878-3.635 21.299 4.301 34.765 7.936 13.517 16.896 16.691 28.262 20.685 12.851 4.557 27.392 9.728 39.066 29.645s9.114 35.174 6.81 48.589c-2.048 11.878-3.635 21.299 4.301 34.765 8.96 15.206 16.845 18.278 27.75 22.528 8.448 3.277 18.688 7.27 30.003 17.254l28.979-16.998c-5.018-8.499-13.005-11.264-23.962-15.053h-0.051zM467.499 281.19c6.4 15.411 9.779 31.181 13.056 46.49 5.325 24.986 10.394 48.538 28.006 67.789 3.123 3.43 6.963 6.861 11.059 10.445 9.216 8.141 19.61 17.408 24.781 30.106 7.27 17.818 0.461 38.093-18.688 55.603-33.946 31.027-86.118 35.635-132.968 11.725-35.226-18.022-63.642-46.285-82.074-81.818-26.112-50.227-29.030-106.291-8.038-153.907 12.134-27.494 37.581-58.163 72.602-61.696 2.304-0.256 4.711-0.358 7.22-0.358 25.958 0 59.598 14.387 85.044 75.674v-0.051zM377.335 226.304c-26.266 2.662-46.080 27.341-55.91 49.562-18.483 41.882-15.77 91.546 7.475 136.192 16.486 31.693 41.779 56.934 73.216 73.011 14.592 7.475 33.23 12.902 52.378 12.902s40.346-5.888 57.395-21.453c4.608-4.198 19.149-18.995 13.517-32.768-3.379-8.243-11.162-15.155-19.405-22.477-4.301-3.789-8.704-7.731-12.544-11.93-21.35-23.347-27.238-50.79-32.922-77.363-3.226-15.053-6.246-29.235-11.93-42.906-18.483-44.544-42.446-65.638-71.271-62.771zM740.727 736.875l-97.894-135.475h24.627l97.894 135.475h-24.627zM748.42 671.958c-20.48 0-36.506-16.026-36.506-36.506s16.026-36.506 36.506-36.506c20.48 0 36.352 16.026 36.352 36.506s-15.974 36.506-36.352 36.506zM748.42 618.71c-9.574 0-16.23 6.912-16.23 16.742s6.502 16.742 16.23 16.742c9.728 0 16.026-6.707 16.026-16.742s-6.451-16.742-16.026-16.742zM696.439 702.473c0 20.48-15.974 36.506-36.352 36.506s-36.506-16.026-36.506-36.506c0-20.48 16.026-36.506 36.506-36.506s36.352 16.026 36.352 36.506zM660.087 719.216c9.626 0 16.026-6.707 16.026-16.742s-6.451-16.742-16.026-16.742c-9.574 0-16.23 6.912-16.23 16.742s6.502 16.742 16.23 16.742zM882.044 604.474c5.478 16.845-0.41 34.15-15.002 44.134-5.12 3.482-8.038 9.062-8.038 15.206s2.918 11.725 8.038 15.206c14.592 9.984 20.48 27.341 15.053 44.134s-20.378 27.494-38.093 26.88c-6.144-0.154-11.827 2.611-15.462 7.578-3.635 5.018-4.506 11.213-2.458 17.050 5.939 16.691 0.512 34.15-13.773 44.544-14.336 10.394-32.614 10.138-46.643-0.666-4.915-3.789-11.059-4.864-16.947-2.918-5.888 1.894-10.24 6.4-11.981 12.339-5.018 16.947-19.661 27.955-37.376 27.955s-32.358-10.957-37.376-27.955c-1.741-5.939-6.144-10.445-11.981-12.339-5.888-1.894-12.083-0.819-16.947 2.918-14.029 10.803-32.307 11.059-46.643 0.666s-19.712-27.904-13.824-44.544c2.048-5.837 1.178-12.032-2.458-17.050s-9.267-7.731-15.462-7.578c-17.715 0.563-32.666-10.086-38.093-26.88s0.41-34.15 15.053-44.134c5.12-3.482 8.038-9.062 8.038-15.206 0-1.485-0.205-2.867-0.512-4.25-8.704 0.717-17.562 1.126-26.368 1.126-171.109 0-310.373-139.215-310.373-310.377s139.213-310.374 310.373-310.374c171.162 0 310.374 139.213 310.374 310.374 0 53.248-13.466 104.909-39.117 150.886 9.677-1.434 19.712 0.922 28.314 7.168 14.336 10.394 19.712 27.906 13.773 44.546-2.048 5.837-1.178 12.032 2.458 17.050s9.267 7.834 15.462 7.629c17.664-0.563 32.666 10.086 38.093 26.88h-0.102zM512.687 60.471c-159.845 0-289.893 130.048-289.893 289.894s130.048 289.897 289.893 289.897c3.226 0 6.451-0.102 9.677-0.205-7.629-9.882-9.984-22.835-5.888-35.533 5.478-16.845 20.48-27.443 38.093-26.88 6.144 0.205 11.827-2.611 15.462-7.578 3.635-5.018 4.506-11.213 2.458-17.050-5.939-16.691-0.512-34.153 13.824-44.546s32.614-10.138 46.643 0.666c4.915 3.789 11.059 4.813 16.947 2.918s10.24-6.4 11.981-12.339c5.018-16.947 19.661-27.955 37.376-27.955s32.358 10.957 37.376 27.955c1.741 5.939 6.144 10.445 11.981 12.339 1.434 0.461 2.918 0.768 4.352 0.87l-0.154-0.102c32.512-48.026 49.715-104.141 49.715-162.406 0-159.846-130.048-289.894-289.894-289.894l0.051-0.051zM862.537 610.822c-2.048-6.349-7.987-12.954-18.074-12.749-12.749 0.358-25.037-5.632-32.563-16.026-7.578-10.394-9.472-23.859-5.171-35.942 3.43-9.574-1.126-17.205-6.554-21.148-5.376-3.942-14.029-5.888-22.118 0.307-10.189 7.834-23.552 10.14-35.789 6.195-12.237-3.994-21.709-13.722-25.293-26.010-2.867-9.779-11.008-13.261-17.715-13.261s-14.848 3.482-17.715 13.261c-3.635 12.339-13.107 22.067-25.344 26.010-3.942 1.28-7.987 1.897-12.032 1.897-8.499 0-16.845-2.767-23.757-8.092-8.090-6.195-16.691-4.25-22.118-0.307-5.376 3.942-9.933 11.522-6.554 21.148 4.301 12.134 2.355 25.549-5.171 35.942s-19.814 16.384-32.563 16.026c-10.24-0.205-16.026 6.4-18.074 12.749s-1.28 15.206 7.117 20.941c10.598 7.27 16.947 19.251 16.947 32.102s-6.349 24.883-16.947 32.102c-8.397 5.734-9.165 14.592-7.117 20.941s7.885 12.902 18.074 12.749c12.8-0.358 25.037 5.632 32.563 16.026 7.578 10.394 9.472 23.808 5.171 35.942-3.43 9.574 1.126 17.203 6.554 21.146s14.029 5.888 22.118-0.307c10.189-7.834 23.552-10.138 35.789-6.195 12.237 3.994 21.709 13.722 25.344 26.010 2.867 9.779 11.008 13.261 17.715 13.261s14.848-3.482 17.715-13.261c3.635-12.339 13.107-22.067 25.293-26.010 12.237-3.994 25.6-1.69 35.789 6.195 8.090 6.195 16.691 4.25 22.118 0.307 5.376-3.942 9.933-11.52 6.554-21.146-4.301-12.083-2.355-25.549 5.171-35.942s19.61-16.333 32.563-16.026c10.086 0.205 16.026-6.4 18.074-12.749s1.28-15.155-7.117-20.941c-10.598-7.27-16.947-19.251-16.947-32.102s6.349-24.832 16.947-32.102c8.397-5.734 9.165-14.592 7.117-20.941z" />
<glyph unicode="&#xe93e;" glyph-name="descuento-generico" d="M438.519 816.755c27.814 64.41 119.147 64.41 146.957 0 14.029-32.479 53.38-45.266 83.819-27.234 60.361 35.761 134.251-17.923 118.891-86.38-7.744-34.52 16.58-67.997 51.802-71.299 69.854-6.549 98.078-93.411 45.414-139.767-26.556-23.373-26.556-64.755 0-88.128 52.663-46.357 24.439-133.218-45.414-139.767-35.221-3.302-59.546-36.779-51.802-71.3 15.36-68.459-58.53-122.142-118.891-86.379-30.438 18.031-69.79 5.244-83.819-27.234-27.81-64.41-119.142-64.41-146.957 0-14.026 32.478-53.38 45.265-83.817 27.234-60.361-35.763-134.25 17.92-118.893 86.379 7.744 34.522-16.578 67.998-51.801 71.3-69.853 6.549-98.076 93.41-45.413 139.767 26.555 23.373 26.555 64.755 0 88.128-52.663 46.357-24.44 133.219 45.413 139.767 35.223 3.302 59.546 36.778 51.801 71.299-15.357 68.457 58.531 122.141 118.893 86.38 30.438-18.032 69.791-5.245 83.817 27.234zM565.892 808.297c-20.399 47.242-87.39 47.242-107.789 0-19.123-44.282-72.777-61.716-114.275-37.13-44.273 26.229-98.467-13.146-87.203-63.357 10.558-47.064-22.603-92.706-70.626-97.208-51.235-4.803-71.935-68.513-33.309-102.514 36.206-31.868 36.206-88.286 0-120.154-38.626-34.001-17.926-97.711 33.309-102.515 48.023-4.501 81.184-50.142 70.626-97.207-11.264-50.21 42.93-89.587 87.203-63.356 41.498 24.585 95.152 7.151 114.275-37.133 20.399-47.241 87.39-47.241 107.789 0 19.123 44.284 72.777 61.717 114.274 37.133 44.275-26.231 98.47 13.146 87.206 63.356-10.56 47.066 22.601 92.706 70.626 97.207 51.234 4.804 71.932 68.514 33.306 102.515-36.203 31.868-36.203 88.286 0 120.154 38.626 34.001 17.929 97.711-33.306 102.514-48.026 4.502-81.186 50.144-70.626 97.208 11.264 50.211-42.931 89.586-87.206 63.357-41.498-24.585-95.151-7.152-114.274 37.13zM426.667 533.333c-7.586 0-21.333 9.638-21.333 32s13.748 32 21.333 32c7.586 0 21.333-9.638 21.333-32s-13.747-32-21.333-32zM426.667 512c23.565 0 42.667 23.878 42.667 53.333s-19.102 53.333-42.667 53.333c-23.564 0-42.667-23.878-42.667-53.333s19.103-53.333 42.667-53.333zM597.333 298.667c-7.586 0-21.333 9.638-21.333 32s13.747 32 21.333 32c7.586 0 21.333-9.638 21.333-32s-13.747-32-21.333-32zM597.333 277.333c23.565 0 42.667 23.876 42.667 53.333s-19.102 53.333-42.667 53.333c-23.565 0-42.667-23.876-42.667-53.333s19.102-53.333 42.667-53.333zM668.834 589.79l-298.666-298.667-15.085 15.087 298.668 298.665 15.083-15.085z" />
<glyph unicode="&#xe93f;" glyph-name="descuento-mobile" d="M731.678 860.116c13.751 31.845 58.906 31.845 72.657 0 4.361-10.091 16.585-14.063 26.039-8.461 29.845 17.68 66.377-8.861 58.782-42.708-2.406-10.724 5.15-21.125 16.094-22.15 34.539-3.238 48.491-46.183 22.455-69.102-8.252-7.262-8.252-20.118 0-27.38 26.035-22.919 12.083-65.864-22.455-69.102-10.944-1.026-18.5-11.426-16.094-22.15 7.595-33.846-28.937-60.387-58.782-42.707-9.455 5.602-21.679 1.629-26.039-8.461-13.751-31.847-58.906-31.847-72.657 0-4.356 10.090-16.585 14.063-26.039 8.461-29.841-17.68-66.372 8.861-58.782 42.707 2.406 10.724-5.15 21.125-16.094 22.15-34.534 3.238-48.486 46.183-22.451 69.102 8.252 7.262 8.252 20.118 0 27.38-26.035 22.919-12.083 65.864 22.451 69.102 10.944 1.026 18.5 11.426 16.094 22.151-7.59 33.846 28.941 60.387 58.782 42.707 9.455-5.603 21.683-1.63 26.039 8.461zM784.751 851.659c-6.336 14.677-27.149 14.677-33.485 0-9.455-21.894-35.985-30.513-56.499-18.358-13.756 8.148-30.592-4.084-27.093-19.683 5.218-23.269-11.174-45.835-34.918-48.061-15.919-1.492-22.349-21.285-10.347-31.848 17.899-15.757 17.899-43.65 0-59.407-12.002-10.563-5.572-30.356 10.347-31.848 23.744-2.226 40.137-24.791 34.918-48.061-3.499-15.599 13.338-27.832 27.093-19.683 20.514 12.155 47.044 3.536 56.499-18.357 6.336-14.677 27.149-14.677 33.485 0 9.455 21.893 35.981 30.513 56.499 18.357 13.756-8.148 30.592 4.084 27.093 19.683-5.222 23.269 11.174 45.835 34.918 48.061 15.915 1.492 22.345 21.285 10.347 31.848-17.903 15.757-17.903 43.65 0 59.407 11.998 10.563 5.568 30.356-10.347 31.848-23.744 2.226-40.141 24.791-34.918 48.061 3.499 15.599-13.338 27.832-27.093 19.683-20.518-12.155-47.044-3.536-56.499 18.358zM728.205 761.932c-1.604-2.001-2.871-5.166-2.871-9.050s1.267-7.049 2.871-9.050c1.583-1.982 3.153-2.505 4.241-2.505s2.654 0.524 4.241 2.505c1.6 2.001 2.867 5.166 2.867 9.050s-1.267 7.049-2.867 9.050c-1.587 1.982-3.153 2.505-4.241 2.505s-2.658-0.524-4.241-2.505zM704 752.882c0 15.82 10.637 32.889 28.446 32.889 17.805 0 28.442-17.069 28.442-32.889s-10.637-32.889-28.442-32.889c-17.809 0-28.446 17.069-28.446 32.889zM799.287 664.161c-1.604-2.002-2.871-5.166-2.871-9.050s1.267-7.049 2.871-9.050c1.583-1.982 3.153-2.506 4.241-2.506s2.654 0.524 4.241 2.506c1.6 2.001 2.867 5.166 2.867 9.050s-1.267 7.048-2.867 9.050c-1.587 1.982-3.153 2.505-4.241 2.505s-2.658-0.524-4.241-2.505zM775.083 655.111c0 15.82 10.637 32.889 28.446 32.889 17.805 0 28.442-17.069 28.442-32.889s-10.637-32.889-28.442-32.889c-17.809 0-28.446 17.069-28.446 32.889zM837.696 758.686l-124.446-124.445-15.083 15.085 124.442 124.444 15.087-15.085zM448 725.333c23.565 0 42.667-19.103 42.667-42.667v-597.333c0-23.565-19.102-42.667-42.667-42.667h-256c-23.564 0-42.667 19.102-42.667 42.667v597.333c0 23.564 19.103 42.667 42.667 42.667h256zM192 746.667c-35.346 0-64-28.654-64-64v-597.333c0-35.345 28.654-64 64-64h256c35.345 0 64 28.655 64 64v597.333c0 35.346-28.655 64-64 64h-256zM384 650.667h-128v21.333h128v-21.333zM320 85.333c-5.891 0-10.667 4.774-10.667 10.667s4.776 10.667 10.667 10.667c5.891 0 10.667-4.774 10.667-10.667s-4.776-10.667-10.667-10.667zM320 64c17.673 0 32 14.327 32 32s-14.327 32-32 32c-17.673 0-32-14.327-32-32s14.327-32 32-32zM490.667 138.667h-362.667v21.333h362.667v-21.333z" />
<glyph unicode="&#xe940;" glyph-name="Early-check-in_small" d="M512.845 627.563c-166.094 0-301.262-135.168-301.262-301.261s135.168-301.261 301.262-301.261c166.093 0 301.261 135.168 301.261 301.261s-135.168 301.261-301.261 301.261zM512.845 45.572c-154.778 0-280.679 125.901-280.679 280.73s125.901 280.73 280.679 280.73c154.778 0 280.73-125.901 280.73-280.73s-125.901-280.73-280.73-280.73zM512.841 870.959c-128.513 0-249.755-47.36-343.809-133.837v97.382h-20.531v-130.048h130.048v20.531h-92.314c89.754 81.050 204.8 125.389 326.606 125.389 130.355 0 252.928-50.79 345.088-142.95l14.541 14.541c-96.051 96.051-223.795 148.992-359.629 148.992zM523.166 327.987v213.096h-20.582v-233.781l147.149 0.819-0.102 20.582-126.464-0.717zM701.35 639.622l-14.515-14.518 130.586-130.589 14.519 14.519-130.59 130.587zM324.337 639.65l-130.587-130.585 14.517-14.519 130.588 130.587-14.518 14.518z" />
<glyph unicode="&#xe941;" glyph-name="Experiencia-gastronomica_small" d="M899.827 124.932c0 34.765-28.314 63.078-63.078 63.078h-55.398v125.184c26.675 2.662 47.565 25.242 47.565 52.634v95.693h-115.61v-95.693c0-27.392 20.89-49.92 47.565-52.634v-125.184h-98.611c30.874 20.070 50.893 54.886 50.893 93.338s-21.862 77.466-57.088 97.126c-7.782 4.352-12.595 12.698-12.595 21.811v117.197h-41.523l4.915 0.307c-0.256 3.891-6.144 92.877-29.338 143.309 20.173 10.547 34.662 30.464 37.786 53.606 1.126 8.499 0.717 17.101-1.229 25.498l-22.528 96.717c-1.69 9.626-8.602 26.47-24.371 30.362-18.893 4.659-41.933-10.957-70.298-47.667-0.256 0.205-0.512 0.358-0.768 0.563l-2.714 1.894c-12.8 8.96-21.709 14.95-29.030 16.179-5.53 0.922-12.646-1.638-17.254-6.195-4.557-4.506-6.502-10.65-5.478-17.254l34.15-107.264c4.352-18.278 15.565-33.843 31.59-43.776 11.418-7.117 24.269-10.752 37.376-10.752 4.403 0 8.858 0.512 13.312 1.382 21.094-43.776 27.648-127.13 28.365-136.909h-25.958v-117.197l0.102-1.536c1.28-8.602-24.115-19.405-33.69-23.501-4.557-1.946-8.499-3.635-11.315-5.222l0.256-0.461c-24.781 14.080-52.378 23.552-81.664 27.546 3.482 5.581 5.478 12.134 5.478 19.149 0 20.122-16.384 36.506-36.505 36.506s-36.454-16.384-36.454-36.506c0-7.014 2.048-13.568 5.478-19.149-105.37-14.131-188.518-99.226-198.81-209.050l6.349-0.614c-31.181-3.789-55.45-30.362-55.45-62.566v-10.24h343.244v-76.186h20.48v76.083h48.128v-76.544h20.48v76.595h343.245v10.342zM733.786 365.828v75.213h74.65v-75.213c0-17.869-14.541-32.41-32.41-32.41h-9.83c-17.869 0-32.41 14.541-32.41 32.41zM562.214 847.467c5.786-1.382 8.704-11.571 9.165-14.182l22.323-96c-16.691 31.539-46.746 52.070-67.072 63.078-4.198 2.304-8.55 4.915-12.851 7.731 31.795 40.858 45.875 39.987 48.435 39.373zM518.131 681.169c-11.469 7.117-19.456 18.33-22.528 31.488l-33.536 105.062c4.403-1.741 14.438-8.806 19.558-12.39l2.714-1.894c10.035-7.014 21.35-15.002 32.563-21.094 24.474-13.261 65.28-42.189 68.454-88.474-7.014-9.37-17.203-16.282-29.030-18.995-13.158-3.072-26.726-0.819-38.195 6.298zM580.902 400.951v96.051h42.086v-96.717c0-16.538 8.858-31.744 23.091-39.68 28.723-16.026 46.592-46.387 46.592-79.258 0-38.81-24.986-73.062-60.826-85.606-8.96 67.226-44.902 124.57-96.051 161.075 18.381 7.834 47.923 20.787 45.158 44.134h-0.051zM403.136 432.286c8.806 0 16.026-7.168 16.026-16.026s-7.168-16.026-16.026-16.026c-8.858 0-15.974 7.168-15.974 16.026s7.168 16.026 15.974 16.026zM403.136 378.782c107.673 0 196.915-81.766 208.998-190.72h-418.201c11.11 108.851 100.71 190.72 209.203 190.72zM145.959 135.223c4.608 18.534 21.402 32.358 41.37 32.358h649.472c19.968 0 36.762-13.824 41.37-32.358h-732.211z" />
<glyph unicode="&#xe942;" glyph-name="Gym_Small" d="M932.881 619.719c0.986 3.578 1.259 7.316 0.789 10.998-0.465 3.683-1.655 7.236-3.503 10.455l-34.918 61.44c-1.835 3.228-4.288 6.063-7.219 8.343s-6.281 3.96-9.865 4.945c-3.58 0.984-7.317 1.253-11.004 0.791-3.682-0.461-7.241-1.644-10.466-3.481l-12.442-7.117-7.117 12.493c-5.973 10.836-15.1 19.603-26.163 25.139-5.090 2.664-10.743 4.056-16.486 4.056s-11.401-1.392-16.486-4.056l-16.384-9.318-4.864 8.499c-6.054 10.607-16.073 18.378-27.853 21.603s-24.358 1.643-34.97-4.4l-49.971-28.467c-10.607-6.054-18.381-16.071-21.606-27.851s-1.643-24.358 4.403-34.971l39.936-70.144-371.56-212.12-39.936 70.144c-2.997 5.257-7.002 9.873-11.784 13.585s-10.249 6.443-16.088 8.043c-5.839 1.596-11.935 2.027-17.941 1.267s-11.802-2.692-17.060-5.692l-49.92-28.467c-5.263-2.995-9.885-6.997-13.601-11.776-3.716-4.783-6.454-10.249-8.056-16.085-1.602-5.841-2.038-11.938-1.283-17.946s2.688-11.806 5.686-17.067l4.864-8.499-16.384-9.318c-4.902-3.017-8.996-7.181-11.931-12.13s-4.621-10.539-4.914-16.286c-0.868-12.335 2.043-24.64 8.346-35.277l13.875-24.371-13.466-7.68c-3.252-1.847-6.108-4.314-8.402-7.266s-3.983-6.332-4.968-9.937c-0.985-3.605-1.247-7.373-0.771-11.081s1.68-7.287 3.543-10.526l35.226-61.901c1.856-3.255 4.335-6.11 7.296-8.401 2.961-2.295 6.345-3.981 9.958-4.962 2.454-0.67 4.984-1.011 7.526-1.024 4.945 0 9.803 1.306 14.080 3.789l13.414 7.629 1.741-3.021c10.496-18.432 27.494-29.286 43.264-29.235 5.556-0.030 11.024 1.382 15.872 4.096l16.384 9.37 5.12-8.499c2.993-5.265 6.993-9.886 11.772-13.602s10.243-6.455 16.081-8.055c3.991-1.075 8.104-1.63 12.237-1.638 7.991 0.030 15.831 2.167 22.733 6.195l49.971 28.467c10.608 6.050 18.378 16.068 21.604 27.849s1.643 24.358-4.401 34.974l-37.376 65.638 371.56 211.763 37.376-65.638c2.995-5.261 7.002-9.877 11.785-13.589s10.249-6.443 16.085-8.043c5.841-1.596 11.938-2.027 17.941-1.267 6.007 0.759 11.802 2.692 17.062 5.696l49.92 28.467c10.551 6.123 18.244 16.179 21.393 27.964 3.145 11.785 1.493 24.341-4.599 34.91l-4.864 8.499 16.384 9.318c4.881 3.038 8.96 7.202 11.891 12.151 2.931 4.945 4.629 10.522 4.954 16.263 0.998 12.286-1.749 24.586-7.885 35.277l-9.062 15.872 12.493 7.117c3.183 1.854 5.973 4.319 8.205 7.254s3.861 6.281 4.8 9.847zM158.684 175.561c-0.912-0.529-1.922-0.87-2.968-1.003s-2.109-0.051-3.124 0.235c-2.035 0.559-3.765 1.903-4.813 3.738l-35.174 61.901c-1.040 1.839-1.311 4.019-0.755 6.063 0.556 2.039 1.894 3.78 3.725 4.843l13.466 7.629 43.162-75.725-13.517-7.68zM232.975 155.081c-7.578-4.301-22.272 1.792-31.232 17.459l-78.899 138.752c-4.183 7.002-6.164 15.1-5.683 23.245 0.048 2.445 0.665 4.851 1.802 7.019s2.764 4.041 4.751 5.474l16.384 9.37 109.414-192-16.538-9.318zM376.796 202.236c1.664-2.923 2.737-6.144 3.157-9.481s0.178-6.72-0.711-9.963c-0.889-3.243-2.408-6.281-4.471-8.934s-4.628-4.877-7.549-6.541l-49.818-28.621c-2.921-1.668-6.142-2.739-9.478-3.157-3.336-0.422-6.722-0.179-9.965 0.708-3.242 0.892-6.278 2.411-8.934 4.471-2.655 2.065-4.879 4.629-6.543 7.552l-139.52 244.531c-3.297 5.879-4.14 12.821-2.348 19.324 1.793 6.498 6.077 12.028 11.922 15.39l49.92 28.518c2.926 1.66 6.15 2.726 9.489 3.136 3.338 0.414 6.726 0.166 9.967-0.73 3.226-0.883 6.246-2.394 8.882-4.45s4.839-4.617 6.478-7.531l139.52-244.224zM347.356 295.983l-41.728 73.114 370.946 211.403 41.728-73.265-370.946-211.251zM868.779 453.116l-49.92-28.467c-2.923-1.668-6.144-2.739-9.481-3.157-3.337-0.422-6.72-0.179-9.963 0.708-3.243 0.892-6.281 2.411-8.934 4.471-2.654 2.065-4.877 4.629-6.541 7.552l-139.418 244.478c-1.664 2.921-2.739 6.142-3.157 9.478-0.422 3.336-0.179 6.722 0.708 9.964 0.892 3.243 2.411 6.278 4.471 8.934 2.065 2.655 4.629 4.879 7.552 6.543l49.971 28.467c2.918 1.664 6.14 2.737 9.476 3.156s6.72 0.178 9.963-0.711c3.243-0.889 6.281-2.408 8.934-4.471 2.658-2.062 4.881-4.628 6.545-7.549l139.366-244.581c3.328-5.892 4.19-12.86 2.394-19.383-1.792-6.528-6.097-12.075-11.968-15.433zM897.553 533.856l-16.384-9.368-109.414 191.845 16.384 9.37c2.249 0.977 4.698 1.422 7.147 1.297 2.453-0.125 4.843-0.814 6.985-2.014 7.164-3.787 13.043-9.613 16.896-16.742l79.104-138.752c4.181-7.003 6.161-15.102 5.683-23.245-0.026-2.436-0.619-4.832-1.728-7.001-1.114-2.168-2.714-4.048-4.672-5.492v0.102zM912.913 625.197c-0.546-1.987-1.852-3.68-3.635-4.71l-12.493-7.066-42.394 74.701 12.442 7.066c1.801 1.018 3.93 1.283 5.926 0.736 1.993-0.547 3.691-1.86 4.723-3.654l34.918-61.44c0.969-1.747 1.225-3.802 0.717-5.734l-0.205 0.102z" />
<glyph unicode="&#xe943;" glyph-name="habitacion-superior" d="M810.684 576.883c-33.762 0-66.765 10.012-94.831 28.769-28.070 18.758-49.95 45.418-62.865 76.61-12.919 31.192-16.294 65.514-9.702 98.624 6.588 33.111 22.852 63.524 46.729 87.392s54.293 40.119 87.407 46.699c33.114 6.579 67.435 3.191 98.62-9.737 31.189-12.928 57.843-34.814 76.591-62.89s28.749-61.082 28.736-94.843c-0.047-45.248-18.048-88.629-50.048-120.619s-75.388-49.974-120.636-50.005zM810.684 894.714c-29.116 0-57.574-8.634-81.783-24.809s-43.076-39.165-54.217-66.064c-11.14-26.898-14.059-56.496-8.375-85.051 5.679-28.555 19.699-54.785 40.286-75.372s46.814-34.607 75.371-40.287c28.557-5.68 58.155-2.765 85.052 8.377s49.89 30.009 66.065 54.217c16.175 24.208 24.806 52.669 24.806 81.783-0.047 39.027-15.569 76.442-43.166 104.039s-65.011 43.12-104.038 43.167zM179 501.333h585.365v-199.023h-23.415v175.607h-538.535v-175.607h-23.415v199.023zM249.25 407.667h187.315v-105.365h-23.413v81.95h-140.488v-81.95h-23.415v105.365zM506.833 407.667h187.319v-105.365h-23.415v81.95h-140.489v-81.95h-23.415v105.365zM822.46 759.245v78.65h-23.475v-78.65h-78.652v-23.478h78.652v-78.65h23.475v78.65h78.592v23.478h-78.592zM85.333 208.657c0 58.189 47.174 105.365 105.366 105.365h561.949c58.193 0 105.37-47.177 105.37-105.365v-187.319h-23.415v105.365h-725.855v-105.365h-23.415v187.319zM108.748 150.118h725.855v58.539c0 45.257-36.693 81.95-81.954 81.95h-561.949c-45.26 0-81.951-36.693-81.951-81.95v-58.539z" />
<glyph unicode="&#xe944;" glyph-name="Last-call_Small" d="M195.908 458.249h-93.491v-20.48h93.491v20.48zM921.574 458.249h-93.491v-20.48h93.491v20.48zM153.525 638.934l-9.775-17.996 82.154-44.624 9.775 17.996-82.154 44.624zM798.11 319.599l-9.775-17.997 82.15-44.621 9.779 17.997-82.155 44.621zM870.174 639.489l-82.091-44.739 9.801-17.983 82.091 44.739-9.801 17.983zM226.151 319.241l-82.068-44.783 9.81-17.975 82.068 44.779-9.81 17.98zM268.417 847.353h36.557v-148.48c0-115.456 75.366-163.84 125.286-195.535 26.419-16.896 47.258-30.208 47.258-45.158 0-11.571-19.968-25.242-43.162-40.96-51.506-35.226-129.382-88.474-129.382-209.92v-158.72h-36.557v-20.48h501.452v20.48h-50.79v158.771c0 121.344-77.875 174.592-129.382 209.92-23.194 15.872-43.162 29.542-43.162 40.96 0 14.95 20.838 28.262 47.258 45.158 49.92 31.643 125.286 80.079 125.286 195.483v148.48h50.79v20.48h-501.452v-20.48zM326.682 48.631v130.765c90.726 70.349 139.366 39.066 182.322 11.366 6.963-4.506 13.619-8.755 20.48-12.544 20.169-11.972 43.11-18.483 66.56-18.893 46.080 0 81.101 27.597 101.376 48.998v-159.693h-370.738zM697.37 698.873c0-103.526-63.898-144.384-115.251-177.256-30.72-19.61-57.293-36.608-57.293-63.437 0-23.040 23.194-38.912 52.582-59.034 45.67-31.181 106.445-72.806 117.76-161.178-10.995-15.070-24.444-28.186-39.782-38.81-36.608-24.474-75.571-25.6-115.763-2.816-6.093 3.43-12.442 7.526-19.149 11.878-42.086 27.136-98.866 63.693-193.586-3.021v2.15c0 109.875 69.325 157.286 119.961 191.898 29.338 20.070 52.378 35.942 52.378 58.982 0 26.829-26.522 43.827-57.293 63.437-51.353 32.872-115.25 73.73-115.25 177.205v148.48h370.687v-148.48z" />
<glyph unicode="&#xe945;" glyph-name="Late-check-out_small" d="M513.058 626.229c-164.863 0-299.058-134.146-299.058-299.061s134.144-299.059 299.058-299.059c164.915 0 299.059 134.144 299.059 299.059s-134.144 299.061-299.059 299.061zM513.058 48.64c-153.599 0-278.578 124.979-278.578 278.579s124.979 278.581 278.578 278.581c153.6 0 278.579-124.981 278.579-278.581s-124.979-278.579-278.579-278.579zM503.228 540.443l-0.811-221.795 20.48-0.077 0.811 221.797-20.48 0.075zM699.981 638.231l-14.481-14.481 129.574-129.572 14.481 14.481-129.574 129.572zM325.657 638.199l-129.574-129.574 14.481-14.481 129.574 129.573-14.481 14.481zM852.331 831.635v-96.563c-93.338 85.76-213.658 132.762-341.197 132.762-134.862 0-261.633-52.531-356.967-147.866l14.49-14.49c91.494 91.494 213.094 141.875 342.478 141.875 120.883 0 234.957-43.981 324.045-124.365h-91.494v-20.48h129.126v129.126h-20.48z" />
<glyph unicode="&#xe946;" glyph-name="mejor-precio-online" d="M746.782 727.056c8.499 17.814 33.86 17.814 42.359 0l22.323-46.779c0.307-0.652 0.93-1.102 1.643-1.196l51.388-6.774c19.571-2.579 27.405-26.696 13.090-40.285l-37.589-35.685c-0.525-0.497-0.764-1.225-0.631-1.935l9.438-50.966c3.593-19.408-16.922-34.312-34.27-24.899l-45.551 24.727c-0.636 0.344-1.404 0.344-2.035 0l-45.555-24.727c-17.348-9.412-37.862 5.491-34.27 24.899l9.438 50.966c0.132 0.71-0.107 1.438-0.631 1.935l-37.589 35.685c-14.315 13.589-6.481 37.705 13.090 40.285l51.388 6.774c0.713 0.094 1.335 0.544 1.647 1.196l22.319 46.779zM769.886 717.869c-0.772 1.619-3.076 1.619-3.849 0l-22.323-46.779c-3.422-7.169-10.236-12.121-18.112-13.159l-51.388-6.774c-1.779-0.234-2.492-2.427-1.19-3.662l37.594-35.685c5.76-5.469 8.363-13.481 6.916-21.292l-9.438-50.966c-0.324-1.764 1.54-3.119 3.119-2.263l45.551 24.725c6.985 3.789 15.407 3.789 22.391 0l45.555-24.725c1.574-0.856 3.439 0.499 3.115 2.263l-9.438 50.966c-1.446 7.811 1.156 15.823 6.916 21.292l37.594 35.685c1.301 1.235 0.589 3.428-1.19 3.662l-51.388 6.774c-7.876 1.038-14.69 5.99-18.112 13.159l-22.323 46.779zM768 458.667c-88.367 0-160 71.633-160 160s71.633 160 160 160 160-71.634 160-160c0-88.367-71.633-160-160-160zM768 437.333c100.147 0 181.333 81.186 181.333 181.333s-81.186 181.333-181.333 181.333c-100.147 0-181.333-81.186-181.333-181.333s81.186-181.333 181.333-181.333zM117.333 672h480v-21.333h-458.667v-501.333h-21.333v522.667zM906.667 507.733v-358.4h-21.333v358.4h21.333zM160 629.333h437.333v-21.333h-416v-458.667h-21.333v480zM864 469.333v-320h-21.333v320h21.333zM53.333 160h384v-21.333h149.333v21.333h384v-85.333h-917.333v85.333zM608 138.667v-21.333h-192v21.333h-341.333v-42.667h874.667v42.667h-341.333z" />
<glyph unicode="&#xe947;" glyph-name="ninos-gratis" d="M341.333 384c-106.039 0-192 85.961-192 192s85.961 192 192 192c106.039 0 192-85.961 192-192s-85.961-192-192-192zM341.333 362.667c117.82 0 213.333 95.514 213.333 213.333s-95.514 213.333-213.333 213.333c-117.821 0-213.333-95.513-213.333-213.333s95.513-213.333 213.333-213.333zM635.593 683.060c-22.729 21.735-36.288 50.949-38.020 81.908-1.015 14.63 1.199 29.303 6.494 43.033s13.551 26.197 24.209 36.566c10.658 10.369 23.475 18.399 37.589 23.55s29.197 7.305 44.237 6.315c29.555-1.514 57.638-13.019 79.407-32.528 21.764 19.509 49.852 31.014 79.407 32.528 15.002 0.885 30.029-1.317 44.096-6.464s26.863-13.122 37.547-23.405c43.733-42.577 40.465-115.024-7.313-161.503l-153.737-149.727-153.916 149.727zM935.723 829.233c-8.516 8.186-18.748 14.569-30.042 18.7-11.315 4.139-23.415 5.916-35.511 5.202l-0.162-0.010c-24.751-1.268-48.179-10.9-66.261-27.108l-14.238-12.763-14.238 12.763c-18.086 16.209-41.515 25.841-66.261 27.109l-0.311 0.016c-12.087 0.795-24.201-0.935-35.52-5.066-11.315-4.131-21.547-10.553-30.029-18.801-8.478-8.247-15.002-18.125-19.179-28.952-4.177-10.825-5.914-22.373-5.116-33.876l0.021-0.29c1.421-25.472 12.578-49.624 31.458-67.679l0.132-0.126 139.034-135.249 138.863 135.24c40.495 39.394 41.156 97.933 7.36 130.89zM295.284 737.020c-0.508 17.258 4.748 33.671 9.788 43.751l19.081-9.541c-3.849-7.698-7.926-20.619-7.545-33.583 0.37-12.584 4.823-24.484 17.255-32.771 9.654-6.436 24.169-8.574 42.648 0.665l9.54-19.081c-24.188-12.094-47.005-10.679-64.022 0.665-19.569 13.046-26.226 32.257-26.745 49.895zM341.374 458.667c-68.218 0-105.592 37.999-116.207 59.23l19.081 9.54c7.162-14.323 37.344-47.437 97.126-47.437s89.965 33.114 97.124 47.437l19.085-9.54c-10.615-21.231-47.991-59.23-116.209-59.23zM281.333 610.667c0.736 0 1.333-0.597 1.333-1.333s-0.597-1.333-1.333-1.333c-0.736 0-1.333 0.597-1.333 1.333s0.597 1.333 1.333 1.333zM281.333 589.333c11.046 0 20 8.954 20 20s-8.954 20-20 20c-11.046 0-20-8.954-20-20s8.954-20 20-20zM401.333 610.667c0.736 0 1.333-0.597 1.333-1.333s-0.597-1.333-1.333-1.333c-0.736 0-1.333 0.597-1.333 1.333s0.597 1.333 1.333 1.333zM401.333 589.333c11.046 0 20 8.954 20 20s-8.954 20-20 20c-11.046 0-20-8.954-20-20s8.954-20 20-20zM74.667 149.333c0 100.147 81.186 181.333 181.333 181.333h170.667c100.147 0 181.333-81.186 181.333-181.333v-128h-21.333v128c0 88.367-71.633 160-160 160h-170.667c-88.366 0-160-71.633-160-160v-128h-21.333v128zM160 21.333v85.333h21.333v-85.333h-21.333zM501.333 21.333v85.333h21.333v-85.333h-21.333z" />
<glyph unicode="&#xe948;" glyph-name="Noches_small" d="M693.491 188.821c-182.221 0-330.496 148.275-330.496 330.496 0 147.352 98.969 278.168 240.64 318.104l39.168 11.059-39.731 8.806c-29.85 6.605-60.57 9.984-91.238 9.984-231.372 0-419.584-188.211-419.584-419.582 0-231.373 188.211-419.584 419.584-419.584 138.291 0 267.674 68.198 346.112 182.374l23.040 33.536-36.198-18.637c-47.053-24.269-97.997-36.608-151.296-36.608v0.051zM511.782 48.636c-220.057 0-399.104 179.046-399.104 399.104 0 220.056 179.046 399.051 399.155 399.051 16.026 0 32.051-0.973 47.974-2.867-129.69-53.555-217.292-181.76-217.292-324.606 0-193.536 157.44-350.976 350.976-350.976 42.906 0 84.326 7.526 123.597 22.374-75.52-89.6-186.982-142.080-305.306-142.080zM795.26 755.396h-20.48c0-69.12-56.678-125.389-126.362-125.389v-20.48c69.683 0 126.362-56.269 126.362-125.388h20.48c0 69.12 56.678 125.388 126.362 125.388v20.48c-67.328 0-126.362 58.573-126.362 125.389zM785.020 537.693c-14.899 37.376-44.902 67.226-82.534 82.074 37.939 15.002 68.147 45.261 82.944 83.098 15.36-36.966 45.978-67.43 83.149-82.688-38.093-14.694-68.506-44.749-83.558-82.483z" />
<glyph unicode="&#xe949;" glyph-name="Pack-Bienvenida_small" d="M346.469 444.561c0 109.569 89.14 198.657 198.657 198.657v20.48c-105.83 0-198.657 92.826-198.657 198.656h-20.48c0-109.568-89.139-198.656-198.656-198.656v-20.48c109.516 0 198.656-89.139 198.656-198.657h20.48zM193.586 653.458c68.096 21.658 121.856 75.725 143.052 143.974 22.221-66.611 76.954-121.344 143.566-143.565-68.251-21.197-122.318-74.957-143.976-143.054-21.504 67.636-75.008 121.14-142.643 142.644zM825.715 647.481v221.082h-92.928v-221.082c-48.179-15.616-81.203-60.467-81.203-111.718v-507.598h255.386v507.598c0 51.251-33.024 96.102-81.203 111.718h-0.051zM886.438 48.644h-214.426v487.118c0 44.544 30.208 83.251 73.472 94.106l7.731 1.946v216.269h51.968v-216.269l7.731-1.946c43.264-10.854 73.472-49.562 73.472-94.106v-487.118h0.051zM538.505 257.741c5.53 7.629 8.858 16.998 8.96 27.085 0.256 4.608 1.382 44.749-27.853 77.158-22.579 25.037-56.781 38.502-101.634 40.038-5.376 0-10.086-3.533-11.162-8.806s1.741-10.496 6.758-12.442c22.171-8.653 37.839-20.070 39.989-29.082 0.512-2.202 0.666-5.734-4.301-11.264-4.813-5.376-12.186-8.448-20.224-8.448h-49.307c-25.805 0-46.848-20.992-46.848-46.848 0-10.24 3.328-19.712 8.96-27.443-28.211-5.53-49.51-30.413-49.51-60.16 0-4.813 1.075-9.37 2.97-13.466l23.654-155.955h240.437l26.061 156.467c1.741 3.994 2.714 8.346 2.714 12.954 0 29.798-21.35 54.682-49.562 60.16l-0.102 0.051zM379.68 311.501h49.307c13.824 0 26.726 5.581 35.482 15.258 10.496 11.674 10.701 22.579 9.011 29.696-1.536 6.502-5.222 12.339-10.138 17.562 16.794-5.53 30.464-14.080 40.858-25.549 24.525-26.982 22.835-61.85 22.784-62.618v-0.666c0-14.234-11.366-25.754-25.498-26.266h-122.728c-14.131 0.461-25.446 12.032-25.446 26.266s11.827 26.368 26.368 26.368v-0.051zM353.62 238.438h24.269c0.614 0 1.178-0.102 1.792-0.102h120.936c0.614 0 1.178 0.051 1.792 0.102h24.371c22.528 0 40.858-18.33 40.858-40.858 0-6.554-5.325-11.827-11.827-11.827h-231.221c-6.554 0-11.827 5.325-11.827 11.827 0 22.528 18.33 40.858 40.858 40.858zM541.935 48.691h-205.467l-17.664 116.429h242.485l-19.405-116.429h0.051z" />
<glyph unicode="&#xe94a;" glyph-name="Parking_Small" d="M679.522 276.322h6.144c16.282 0 29.542 15.36 29.542 34.253s-13.261 34.253-29.542 34.253h-53.043l-30.925 59.699c-12.442 24.064-39.322 39.578-68.454 39.578h-244.12c-29.133 0-55.962-15.514-68.454-39.578l-30.925-59.699h-54.016c-16.282 0-29.542-15.36-29.542-34.253s13.261-34.253 29.542-34.253h2.304c-24.115-18.33-39.782-47.206-39.782-79.77v-32.819c0-19.354 10.035-36.403 25.139-46.285v-28.928c0-33.28 27.034-60.314 60.314-60.314h24.371c33.28 0 60.314 27.034 60.314 60.314v19.968h280.472v-19.968c0-33.28 27.034-60.314 60.314-60.314h24.32c33.28 0 60.314 27.034 60.314 60.314v28.723c15.309 9.83 25.498 26.982 25.498 46.49v32.819c0 32.563-15.667 61.44-39.782 79.77zM685.666 324.348c4.301 0 9.062-5.632 9.062-13.773s-4.813-13.773-9.062-13.773h-28.16l-14.285 27.546h42.445zM238.845 395.106c8.96 17.306 28.723 28.518 50.278 28.518h244.172c21.555 0 41.267-11.213 50.278-28.518l50.944-98.304h-42.65l-39.731 74.803c-9.523 17.971-30.003 29.594-52.173 29.594h-177.458c-22.17 0-42.598-11.622-52.173-29.594l-39.731-74.803h-42.65l50.944 98.304h-0.051zM568.572 296.802h-314.776l34.611 65.229c6.042 11.366 19.405 18.688 34.099 18.688h177.407c14.694 0 28.058-7.322 34.099-18.688l34.611-65.229h-0.051zM135.728 296.802c-4.301 0-9.062 5.632-9.062 13.773s4.813 13.773 9.062 13.773h43.418l-14.285-27.546h-29.133zM247.907 88.469c0-21.965-17.869-39.834-39.834-39.834h-24.371c-21.965 0-39.834 17.869-39.834 39.834v19.968h103.987v-19.968h0.051zM673.327 88.469c0-21.965-17.869-39.834-39.834-39.834h-24.32c-21.965 0-39.834 17.869-39.834 39.834v19.968h104.038v-19.968h-0.051zM698.825 163.682c0-19.149-15.616-34.765-34.765-34.765h-510.565c-19.2 0-34.765 15.616-34.765 34.765v32.819c0 43.981 35.789 79.77 79.77 79.77h420.556c43.981 0 79.77-35.789 79.77-79.77v-32.819zM223.705 237.611c-8.192 8.141-18.739 12.954-29.798 13.568-0.87 0-1.741 0.051-2.662 0.051-26.163 0-47.411-21.299-47.411-47.411s21.299-47.411 47.411-47.411h55.296c9.83 0 18.637 5.888 22.426 15.002 3.738 9.114 1.69 19.456-5.325 26.419l-39.936 39.782zM250.022 179.243c-0.358-0.87-1.28-2.304-3.482-2.304h-55.296c-14.848 0-26.931 12.083-26.931 26.931s12.083 26.931 26.931 26.931c0.512 0 1.024 0 1.536 0 5.99-0.358 11.827-3.072 16.435-7.629l39.936-39.782c1.536-1.536 1.178-3.226 0.819-4.096l0.051-0.051zM625.83 251.29c-0.87 0-1.792 0-2.662-0.051-11.008-0.614-21.606-5.427-29.747-13.568l-39.936-39.782c-6.963-6.963-9.062-17.306-5.325-26.419s12.544-15.002 22.426-15.002h55.296c26.163 0 47.411 21.248 47.411 47.411s-21.299 47.411-47.411 47.411h-0.051zM625.83 176.947h-55.296c-2.202 0-3.123 1.434-3.482 2.304s-0.717 2.56 0.819 4.096l39.936 39.782c4.608 4.608 10.445 7.322 16.435 7.629 0.512 0 1.024 0 1.536 0 14.848 0 26.931-12.083 26.931-26.931s-12.083-26.931-26.931-26.931l0.051 0.051zM724.305 867.833c-111.104 0-201.472-90.368-201.472-201.472s90.368-201.474 201.472-201.474c111.104 0 201.472 90.37 201.472 201.474s-90.368 201.472-201.472 201.472zM724.305 485.316c-99.789 0-180.992 81.205-180.992 180.994s81.203 180.992 180.992 180.992c99.789 0 180.992-81.203 180.992-180.992s-81.203-180.994-180.992-180.994zM760.444 766.667h-97.946v-227.738h20.941v103.219h76.954c43.674 0 69.734 23.347 69.734 62.413s-26.061 62.106-69.734 62.106h0.051zM760.444 662.526h-76.954v83.814h76.954c22.118 0 48.486-7.219 48.486-41.728s-26.368-42.035-48.486-42.035v-0.051z" />
<glyph unicode="&#xe94b;" glyph-name="piscina_small" d="M911.369 372.83c-0.452-15.091-6.763-29.419-17.596-39.936s-25.34-16.401-40.439-16.401c-15.104 0-29.606 5.884-40.444 16.401-10.833 10.517-17.143 24.845-17.591 39.936h-20.48c0-15.381-6.114-30.14-16.994-41.015-10.876-10.88-25.634-16.994-41.015-16.994-15.386 0-30.144 6.114-41.020 16.994-10.88 10.876-16.99 25.634-16.99 41.015v260.559h262.81v20.48h-120.986v132.71c0 52.019-40.294 80.23-80.128 81.203h-2.662c-51.866 0-77.466-38.758-79.309-75.315 0-2.611 0-5.12 0-7.834v-130.765h-111.155v132.71c0 52.019-40.090 80.23-79.923 81.254h-2.662c-51.867 0-77.519-38.758-79.362-75.315 0-2.611 0-5.12 0-7.834v-130.816h-263.014v-20.48h262.81v-260.559c0-15.381-6.112-30.14-16.991-41.015-10.879-10.88-25.634-16.994-41.019-16.994s-30.14 6.114-41.019 16.994c-10.879 10.876-16.99 25.634-16.99 41.015h-20.48c-0.448-15.091-6.76-29.419-17.594-39.936s-25.341-16.401-40.441-16.401c-15.1 0-29.606 5.884-40.441 16.401s-17.146 24.845-17.594 39.936h-20.48c-0.008-17.335 5.725-34.189 16.304-47.923 10.579-13.739 25.408-23.582 42.172-28.002 16.765-4.425 34.521-3.17 50.498 3.567 15.976 6.733 29.274 18.564 37.816 33.651 6.087-10.812 14.658-20.023 25.005-26.871 10.347-6.852 22.174-11.145 34.506-12.523 12.332-1.382 24.815 0.192 36.421 4.582 11.605 4.395 22 11.482 30.327 20.681v-279.142h20.48v111.616h252.623v-111.616h20.48v279.142c8.316-9.203 18.701-16.303 30.298-20.706 11.597-4.407 24.077-5.99 36.407-4.625s24.162 5.641 34.517 12.476c10.351 6.835 18.935 16.034 25.037 26.833 8.546-15.095 21.858-26.935 37.85-33.668s33.762-7.974 50.539-3.533c16.772 4.442 31.599 14.315 42.167 28.075 10.564 13.764 16.273 30.639 16.235 47.987h-20.48zM658.799 784.684c0 2.253 0 4.506 0 6.758 1.997 39.629 32.307 56.73 61.030 55.91s60.16-20.070 60.16-60.774v-132.71h-121.344l0.154 130.816zM385.696 784.684c0 2.253 0 4.506 0 6.758 1.997 39.629 32.256 56.73 61.032 55.91 28.774-0.819 60.16-20.070 60.16-60.774v-132.71h-121.192v130.816zM638.319 633.388v-126.261h-252.623v126.261h252.623zM385.696 486.647h252.623v-113.818c-0.452-15.091-6.763-29.419-17.596-39.936s-25.34-16.401-40.439-16.401c-15.104 0-29.606 5.884-40.444 16.401-10.833 10.517-17.143 24.845-17.591 39.936h-20.48c-0.452-15.091-6.763-29.419-17.596-39.936s-25.34-16.401-40.439-16.401c-15.104 0-29.608 5.884-40.443 16.401s-17.146 24.845-17.594 39.936v113.818zM385.696 173.099v146.893c8.332-9.199 18.732-16.286 30.341-20.681 11.611-4.39 24.095-5.961 36.43-4.582 12.335 1.382 24.166 5.67 34.517 12.523 10.355 6.848 18.927 16.060 25.024 26.871 6.093-10.812 14.669-20.023 25.020-26.871 10.351-6.852 22.182-11.14 34.517-12.523 12.335-1.378 24.823 0.192 36.429 4.582 11.61 4.395 22.012 11.482 30.345 20.681v-147.046l-252.623 0.154z" />
<glyph unicode="&#xe94c;" glyph-name="precio_minimo" d="M512.239 31.036c-229.481 0-416.156 186.675-416.156 416.154h22.118c0-217.242 176.742-394.035 394.037-394.035 217.242 0 393.984 176.742 393.984 394.035 0 217.295-176.742 394.037-393.984 394.037-97.026 0-190.313-35.584-262.556-100.198l-14.746 16.486c76.339 68.25 174.797 105.882 277.301 105.882 229.478 0 416.154-186.675 416.154-416.155 0-229.478-186.726-416.205-416.154-416.205zM294.804 314.253l111.586 220.733v1.949h-128.64v26.8h159.826v-28.262l-111.099-221.22h-31.673zM610.163 361.028v13.158c0 9.097 1.865 17.421 5.602 24.973 3.819 7.633 9.34 13.726 16.567 18.27 7.309 4.629 16.162 6.946 26.556 6.946 10.556 0 19.409-2.317 26.556-6.946 7.147-4.544 12.548-10.637 16.201-18.27 3.657-7.552 5.483-15.876 5.483-24.973v-13.158c0-9.097-1.869-17.459-5.602-25.092-3.657-7.552-9.097-13.645-16.324-18.274-7.147-4.548-15.919-6.822-26.313-6.822-10.556 0-19.452 2.274-26.679 6.822-7.228 4.629-12.71 10.722-16.444 18.274-3.738 7.633-5.602 15.996-5.602 25.092zM635.012 374.187v-13.158c0-7.552 1.788-14.332 5.359-20.343 3.575-5.926 9.745-8.892 18.517-8.892 8.529 0 14.537 2.965 18.031 8.892 3.571 6.012 5.359 12.791 5.359 20.343v13.158c0 7.552-1.707 14.293-5.116 20.22-3.413 6.012-9.502 9.015-18.274 9.015-8.529 0-14.66-3.004-18.394-9.015-3.657-5.926-5.483-12.668-5.483-20.22zM485.905 503.799v13.158c0 9.097 1.869 17.419 5.606 24.972 3.814 7.634 9.34 13.725 16.567 18.273 7.309 4.629 16.162 6.944 26.556 6.944 10.556 0 19.409-2.315 26.556-6.944 7.147-4.548 12.548-10.639 16.201-18.273 3.657-7.553 5.483-15.875 5.483-24.972v-13.158c0-9.097-1.869-17.459-5.602-25.092-3.657-7.552-9.097-13.645-16.324-18.274-7.147-4.548-15.919-6.822-26.313-6.822-10.56 0-19.452 2.274-26.679 6.822-7.228 4.629-12.71 10.722-16.444 18.274-3.738 7.633-5.606 15.996-5.606 25.092zM510.758 516.958v-13.158c0-7.552 1.788-14.332 5.359-20.343 3.575-5.926 9.745-8.892 18.517-8.892 8.525 0 14.537 2.965 18.027 8.892 3.575 6.012 5.363 12.791 5.363 20.343v13.158c0 7.552-1.707 14.293-5.116 20.221-3.413 6.010-9.502 9.015-18.274 9.015-8.529 0-14.66-3.005-18.394-9.015-3.657-5.927-5.483-12.669-5.483-20.221zM495.164 314.253l171.52 249.482h27.776l-171.52-249.482h-27.776zM429.862 614.719l41.882 92.365h14.848v-105.472h-9.216v97.28l-44.698-97.843h-6.656l-44.39 97.587v-97.024h-9.216v105.472h15.462l41.983-92.365zM479.915 704.513h4.096v-100.352h-4.096v100.352zM477.111 704.513l-46.101-100.915h-3.362l-45.905 100.915h4.464l43.634-95.998 43.529 95.998h3.742zM479.45 709.633h-9.378l-40.235-88.732-40.333 88.732h-10.089l-0.365 0.803v-0.803h-9.216v-110.592h14.336v87.773l40.182-88.336h9.948l40.495 88.638v-88.075h14.336v110.592h-9.216v1.012l-0.465-1.012zM379.049 704.513v-100.352h-4.096v100.352h4.096zM518.498 707.084h9.677v-105.472h-9.677v105.472zM515.917 709.625h14.797v-110.592h-14.797v110.592zM521.037 704.505v-100.352h4.557v100.352h-4.557zM651.776 600.895h-6.707l-75.878 94.618v-93.901h-9.523v105.472h12.032l70.707-88.525v88.525h9.37v-106.189zM557.082 709.625h15.825l66.914-83.778v83.778h14.49v-111.309h-10.496l-72.090 89.893v-89.176h-14.643v110.592zM562.202 704.505v-100.352h4.403v98.625l79.667-99.342h2.918v101.069h-4.25v-93.272l-74.496 93.272h-8.243z" />
</font>
</defs>
</svg>
